<svg width="99" height="28" viewBox="0 0 99 28" fill="none" xmlns="http://www.w3.org/2000/svg">
<path d="M42.2083 17.8574H48.0876V20.6878H38.6289V2.90283H42.2083V17.8574Z" fill="#FCFBF7"/>
<path d="M63.5184 13.3221C63.5184 13.8308 63.4825 14.2894 63.4178 14.6978H53.0678C53.1541 15.7154 53.5134 16.5179 54.1387 17.0912C54.7641 17.6644 55.5475 17.9582 56.4675 17.9582C57.7972 17.9582 58.7387 17.3921 59.3065 16.2528H63.1662C62.7565 17.6142 61.9731 18.7321 60.8159 19.6134C59.6587 20.4805 58.2356 20.9104 56.5466 20.9104C55.1809 20.9104 53.9591 20.6166 52.8666 20.0219C51.7956 19.4128 50.9475 18.5529 50.3366 17.4494C49.74 16.3459 49.4453 15.0705 49.4453 13.6302C49.4453 12.1684 49.74 10.8858 50.3366 9.78226C50.9331 8.67876 51.7669 7.82605 52.8378 7.23131C53.9087 6.63656 55.145 6.34277 56.5466 6.34277C57.8906 6.34277 59.0909 6.6294 60.1475 7.20981C61.2184 7.79022 62.045 8.61426 62.6272 9.68194C63.2165 10.7353 63.5184 11.9463 63.5184 13.3221ZM59.8097 12.3045C59.7953 11.3873 59.4575 10.6565 58.8106 10.1119C58.1637 9.55296 57.3731 9.2735 56.4315 9.2735C55.5475 9.2735 54.7928 9.54579 54.1819 10.0904C53.5853 10.6135 53.2187 11.3587 53.0822 12.3045H59.8097Z" fill="#FCFBF7"/>
<path d="M65.207 13.58C65.207 12.1541 65.4873 10.8858 66.048 9.78226C66.6301 8.67876 67.3992 7.82605 68.3767 7.23131C69.3614 6.63656 70.4611 6.34277 71.6758 6.34277C72.7323 6.34277 73.6523 6.55774 74.4358 6.98051C75.2336 7.40328 75.8733 7.9407 76.3548 8.5856V6.57207H79.9557V20.6883H76.3548V18.6246C75.8948 19.2838 75.2551 19.8356 74.4358 20.2798C73.638 20.7026 72.7036 20.9176 71.647 20.9176C70.4539 20.9176 69.3614 20.6095 68.3767 20.0004C67.4064 19.3913 66.6301 18.5314 66.048 17.4279C65.4873 16.3029 65.207 15.0203 65.207 13.58ZM76.3476 13.6302C76.3476 12.7631 76.1751 12.0251 75.8373 11.416C75.4995 10.7854 75.0395 10.3125 74.4573 9.99006C73.8751 9.65327 73.257 9.4813 72.5886 9.4813C71.9273 9.4813 71.3092 9.64611 70.7486 9.96856C70.188 10.291 69.728 10.7639 69.3686 11.3945C69.0308 12.0036 68.8583 12.7345 68.8583 13.5872C68.8583 14.4399 69.0308 15.1851 69.3686 15.83C69.728 16.4606 70.188 16.9407 70.7486 17.2846C71.3308 17.6214 71.9417 17.7934 72.5886 17.7934C73.2498 17.7934 73.8751 17.6286 74.4573 17.3061C75.0395 16.9693 75.4995 16.4892 75.8373 15.8802C76.1751 15.2424 76.3476 14.4972 76.3476 13.6302Z" fill="#FCFBF7"/>
<path d="M87.0208 8.6071C87.4808 7.9622 88.1133 7.42478 88.9111 7.00201C89.7305 6.55774 90.6576 6.34277 91.6998 6.34277C92.9073 6.34277 93.9998 6.63656 94.9701 7.23131C95.9548 7.82605 96.7311 8.67159 97.2989 9.78226C97.8811 10.8714 98.1686 12.1326 98.1686 13.58C98.1686 15.0203 97.8811 16.3029 97.2989 17.4279C96.7383 18.5314 95.962 19.3913 94.9701 20.0004C93.9998 20.6095 92.9073 20.9176 91.6998 20.9176C90.6576 20.9176 89.7376 20.7026 88.9398 20.2798C88.1564 19.8571 87.5167 19.3197 87.0208 18.6748V27.4096H83.4414V6.57207H87.0208V8.6071ZM94.5101 13.58C94.5101 12.7273 94.3304 12.0036 93.9711 11.3873C93.6333 10.7568 93.1733 10.2838 92.5911 9.9614C92.0305 9.63894 91.4123 9.47414 90.7511 9.47414C90.1042 9.47414 89.4933 9.64611 88.9111 9.98289C88.3505 10.3053 87.8905 10.7783 87.5311 11.4088C87.1933 12.0394 87.0208 12.7775 87.0208 13.623C87.0208 14.4757 87.1933 15.2138 87.5311 15.8372C87.8905 16.4678 88.3505 16.9478 88.9111 17.2918C89.4933 17.6142 90.1042 17.7791 90.7511 17.7791C91.4123 17.7791 92.0305 17.6071 92.5911 17.2703C93.1733 16.9335 93.6333 16.4463 93.9711 15.8157C94.3304 15.1923 94.5101 14.4471 94.5101 13.58Z" fill="#FCFBF7"/>
<mask id="mask0_4692_4178" style="mask-type:luminance" maskUnits="userSpaceOnUse" x="0" y="0" width="33" height="22">
<path d="M32.2413 0.947754H0.832031V21.2909H32.2413V0.947754Z" fill="white"/>
</mask>
<g mask="url(#mask0_4692_4178)">
<path d="M29.1278 14.993C29.1278 19.4714 23.6437 21.2915 16.83 21.2915C10.0162 21.2915 4.45312 19.4714 4.45312 14.993C4.45312 10.5145 9.9803 6.88867 16.7868 6.88867C23.6006 6.88867 29.1278 10.5216 29.1278 14.993Z" fill="#4BAF74"/>
</g>
<mask id="mask1_4692_4178" style="mask-type:luminance" maskUnits="userSpaceOnUse" x="0" y="0" width="33" height="22">
<path d="M32.2413 0.947754H0.832031V21.2909H32.2413V0.947754Z" fill="white"/>
</mask>
<g mask="url(#mask1_4692_4178)">
<path d="M27.8704 5.22464C27.8704 2.86716 25.937 0.946777 23.5579 0.946777C22.2139 0.946777 21.0207 1.55585 20.2301 2.50888C19.152 2.27241 18.002 2.13627 16.8161 2.13627C15.6229 2.13627 14.4801 2.26525 13.402 2.50888C12.6042 1.55585 11.4039 0.946777 10.0742 0.946777C7.69515 0.946777 5.76172 2.85999 5.76172 5.22464C5.76172 5.99852 5.97016 6.72224 6.32953 7.34565C5.98453 8.07654 5.80484 8.85042 5.80484 9.66013C5.80484 13.8162 10.7426 17.184 16.8233 17.184C22.9039 17.184 27.8417 13.8162 27.8417 9.66013C27.8417 8.85042 27.6548 8.07654 27.317 7.34565C27.662 6.72224 27.8704 5.99852 27.8704 5.22464Z" fill="#32DA6D"/>
</g>
<mask id="mask2_4692_4178" style="mask-type:luminance" maskUnits="userSpaceOnUse" x="0" y="0" width="33" height="22">
<path d="M32.2413 0.947754H0.832031V21.2909H32.2413V0.947754Z" fill="white"/>
</mask>
<g mask="url(#mask2_4692_4178)">
<path d="M9.71984 7.60051C11.1717 7.60051 12.3576 6.43252 12.3576 4.98507C12.3576 3.54479 11.1789 2.36963 9.71984 2.36963C8.26796 2.36963 7.08203 3.53762 7.08203 4.98507C7.08922 6.43252 8.26796 7.60051 9.71984 7.60051Z" fill="#F1F1E8"/>
</g>
<mask id="mask3_4692_4178" style="mask-type:luminance" maskUnits="userSpaceOnUse" x="0" y="0" width="33" height="22">
<path d="M32.2413 0.947754H0.832031V21.2909H32.2413V0.947754Z" fill="white"/>
</mask>
<g mask="url(#mask3_4692_4178)">
<path d="M23.7823 7.60051C25.2342 7.60051 26.4201 6.43252 26.4201 4.98507C26.4201 3.54479 25.2414 2.36963 23.7823 2.36963C22.3233 2.36963 21.1445 3.53762 21.1445 4.98507C21.1445 6.43252 22.3233 7.60051 23.7823 7.60051Z" fill="#F1F1E8"/>
</g>
<mask id="mask4_4692_4178" style="mask-type:luminance" maskUnits="userSpaceOnUse" x="0" y="0" width="33" height="22">
<path d="M32.2413 0.947754H0.832031V21.2909H32.2413V0.947754Z" fill="white"/>
</mask>
<g mask="url(#mask4_4692_4178)">
<path d="M8.31853 20.9849C8.88635 20.9849 9.33197 20.4976 9.26728 19.9387C9.03728 17.9753 8.0526 13.7261 3.73292 11.168C-2.01707 7.76438 2.53261 19.4801 2.53261 19.4801L1.33949 20.1608C0.936989 20.3901 1.10949 20.9849 1.5623 20.9849H8.31853Z" fill="#32DA6D"/>
</g>
<mask id="mask5_4692_4178" style="mask-type:luminance" maskUnits="userSpaceOnUse" x="0" y="0" width="33" height="22">
<path d="M32.2413 0.947754H0.832031V21.2909H32.2413V0.947754Z" fill="white"/>
</mask>
<g mask="url(#mask5_4692_4178)">
<path d="M25.478 20.9849C24.9677 20.9849 24.5652 20.4976 24.6227 19.9387C24.8239 17.9825 25.7152 13.7261 29.6108 11.168C34.8073 7.76438 30.6961 19.4801 30.6961 19.4801L31.7742 20.1608C32.1336 20.3901 31.9827 20.9849 31.573 20.9849H25.478Z" fill="#32DA6D"/>
</g>
<mask id="mask6_4692_4178" style="mask-type:luminance" maskUnits="userSpaceOnUse" x="0" y="0" width="33" height="22">
<path d="M32.2413 0.947754H0.832031V21.2909H32.2413V0.947754Z" fill="white"/>
</mask>
<g mask="url(#mask6_4692_4178)">
<path d="M9.72375 5.46714C9.98968 5.46714 10.2053 5.25211 10.2053 4.99407C10.2053 4.72886 9.98968 4.521 9.72375 4.521C9.45781 4.521 9.24219 4.73603 9.24219 4.99407C9.24937 5.25211 9.465 5.46714 9.72375 5.46714Z" fill="#0D0D0D"/>
</g>
<mask id="mask7_4692_4178" style="mask-type:luminance" maskUnits="userSpaceOnUse" x="0" y="0" width="33" height="22">
<path d="M32.2413 0.947754H0.832031V21.2909H32.2413V0.947754Z" fill="white"/>
</mask>
<g mask="url(#mask7_4692_4178)">
<path d="M23.7823 5.46714C24.0483 5.46714 24.2639 5.25211 24.2639 4.99407C24.2639 4.72886 24.0483 4.521 23.7823 4.521C23.5164 4.521 23.3008 4.73603 23.3008 4.99407C23.3008 5.25211 23.5164 5.46714 23.7823 5.46714Z" fill="#0D0D0D"/>
</g>
</svg>
