<svg width="20" height="20" viewBox="0 0 16 16" fill="none" xmlns="http://www.w3.org/2000/svg">
<rect width="16" height="16" rx="8" fill="url(#paint0_linear_92_6441)"/>
<path d="M4.18081 12.4295C4.48807 12.4295 4.73667 12.1826 4.74047 11.8761C4.82108 11.6525 5.89438 11.1008 7.99836 11.1008C10.1023 11.1008 11.1756 11.6525 11.2571 11.8761C11.2605 12.1826 11.5095 12.4295 11.8163 12.4295C12.1253 12.4295 12.376 12.1792 12.376 11.8702C12.376 10.5661 10.1775 9.98193 7.99836 9.98193C5.8201 9.98193 3.62158 10.5661 3.62158 11.8702C3.62158 12.1792 3.87186 12.4295 4.18081 12.4295Z" fill="#F7F7FF"/>
<path d="M5.88931 9.00797C6.19826 9.00797 6.44896 8.75727 6.44896 8.44874C6.44896 8.21365 7.03774 7.78272 7.9992 7.78272C8.96108 7.78272 9.54985 8.21365 9.54985 8.44874C9.54985 8.75727 9.80056 9.00797 10.1095 9.00797C10.418 9.00797 10.6687 8.75727 10.6687 8.44874C10.6687 7.57676 9.77861 6.86896 8.55885 6.7014V2.95096C8.55885 2.64244 8.30815 2.31787 7.9992 2.31787C7.69067 2.31787 7.43997 2.64244 7.43997 2.95096V6.70183C6.22021 6.86896 5.33008 7.57676 5.33008 8.44916C5.32966 8.75769 5.58036 9.00797 5.88931 9.00797Z" fill="#F7F7FF"/>
<defs>
<linearGradient id="paint0_linear_92_6441" x1="1.19209e-07" y1="8" x2="24.0233" y2="8" gradientUnits="userSpaceOnUse">
<stop stop-color="#0087FA"/>
<stop offset="1" stop-color="#00EEFE"/>
</linearGradient>
</defs>
</svg>
