<svg width="18" height="20" viewBox="0 0 18 20" fill="none" xmlns="http://www.w3.org/2000/svg">
<path fill-rule="evenodd" clip-rule="evenodd" d="M5.75178 3.29961C5.05825 4.09029 4.66667 5.23664 4.66667 6.6V8.33333C4.66667 9.19387 4.27938 9.9088 3.86882 10.4535C3.49335 10.9517 3.02576 11.399 2.65857 11.7502C2.62774 11.7797 2.59761 11.8085 2.56831 11.8366C2.22481 12.1662 2 12.6136 2 13.1333C2 13.6585 2.39364 14 2.77778 14H15.2222C15.6064 14 16 13.6585 16 13.1333C16 12.6136 15.7752 12.1662 15.4317 11.8366C15.4024 11.8085 15.3723 11.7797 15.3414 11.7502C14.9742 11.399 14.5066 10.9517 14.1312 10.4535C13.7206 9.9088 13.3333 9.19387 13.3333 8.33333V6.6C13.3333 5.23664 12.9417 4.09029 12.2482 3.29962C11.5713 2.52782 10.5251 2 9 2C7.47494 2 6.42875 2.52782 5.75178 3.29961ZM4.24822 1.98079C5.34903 0.725779 6.9695 0 9 0C11.0305 0 12.651 0.725779 13.7518 1.98079C14.836 3.21692 15.3333 4.87057 15.3333 6.6V8.33333C15.3333 8.57737 15.4428 8.87094 15.7283 9.24975C16.002 9.61287 16.3573 9.95342 16.7498 10.3296C16.7718 10.3508 16.794 10.372 16.8163 10.3934C17.5 11.0494 18 11.9996 18 13.1333C18 14.67 16.8018 16 15.2222 16H2.77778C1.19824 16 0 14.67 0 13.1333C0 11.9996 0.499968 11.0494 1.18372 10.3934C1.206 10.372 1.22817 10.3508 1.25022 10.3296C1.6427 9.95343 1.99798 9.61287 2.27166 9.24975C2.55716 8.87094 2.66667 8.57737 2.66667 8.33333V6.6C2.66667 4.87057 3.16397 3.21692 4.24822 1.98079Z" fill="url(#paint0_linear_1360_2697)"/>
<path fill-rule="evenodd" clip-rule="evenodd" d="M6.44313 17.1696C6.90183 16.862 7.52303 16.9844 7.83064 17.4431C7.93002 17.5913 8.08442 17.7311 8.29203 17.8346C8.49987 17.9381 8.74454 17.9966 9.0001 17.9966C9.25566 17.9966 9.50034 17.9381 9.70818 17.8346C9.91579 17.7311 10.0702 17.5913 10.1696 17.4431C10.4772 16.9844 11.0984 16.862 11.5571 17.1696C12.0158 17.4772 12.1382 18.0984 11.8306 18.5571C11.5235 19.015 11.0945 19.3784 10.6001 19.6247C10.1059 19.8709 9.55467 19.9966 9.0001 19.9966C8.44554 19.9966 7.8943 19.8709 7.40014 19.6247C6.90574 19.3784 6.47669 19.015 6.16957 18.5571C5.86196 18.0984 5.98444 17.4772 6.44313 17.1696Z" fill="url(#paint1_linear_1360_2697)"/>
<defs>
<linearGradient id="paint0_linear_1360_2697" x1="-7" y1="8.80156" x2="24.5" y2="8.80156" gradientUnits="userSpaceOnUse">
<stop stop-color="#56235C"/>
<stop offset="0.390322" stop-color="#D43752"/>
<stop offset="0.661222" stop-color="#E4462D"/>
<stop offset="1" stop-color="#F8B810"/>
</linearGradient>
<linearGradient id="paint1_linear_1360_2697" x1="3.66659" y1="18.6484" x2="14.1669" y2="18.6484" gradientUnits="userSpaceOnUse">
<stop stop-color="#56235C"/>
<stop offset="0.390322" stop-color="#D43752"/>
<stop offset="0.661222" stop-color="#E4462D"/>
<stop offset="1" stop-color="#F8B810"/>
</linearGradient>
</defs>
</svg>
