<svg width="317" height="237" viewBox="0 0 317 237" fill="none" xmlns="http://www.w3.org/2000/svg">
<path opacity="0.15" d="M86.0472 12.0286C89.4282 16.614 91.0851 38.306 88.6118 41.7858C87.7873 42.9458 87.1174 38.1049 87.054 31.0762C86.7369 19.0659 83.5581 13.7512 72.8642 8.33281C52.3167 -1.90671 19.9973 24.8804 10.7145 60.1844C2.03427 92.8612 20.9845 134.265 55.8566 159.05C79.5948 175.922 99.6627 179.274 170.608 176.885C201.488 175.7 234.894 176.747 245.144 179.231C277.979 186.419 298.407 206.613 312.106 244.283C319.173 264.147 318.447 276.289 309.525 282.169C298.32 289.481 294.527 285.476 285.299 257.53C277.57 233.705 274.392 228.39 262.191 217.973C243.261 201.899 227.157 198.309 169.752 197.664C82.7063 196.902 54.0294 187.869 26.9934 152.503C-4.89411 111.507 -7.80747 66.2247 18.7805 28.8168C27.6471 16.7868 48.5949 1.99512 58.8091 0.525452C68.191 -0.662864 81.1838 5.08006 86.0472 12.0286Z" fill="#F7F7FF"/>
</svg>
