<svg width="303" height="709" viewBox="0 0 303 709" fill="none" xmlns="http://www.w3.org/2000/svg">
<g opacity="0.4" filter="url(#filter0_b_340_230)">
<path d="M34.0548 413.582C39.9536 413.582 44.9291 409.617 46.4548 404.194C52.8007 399.792 79.1072 392.62 121.954 392.62C164.81 392.62 191.107 399.792 197.462 404.194C198.988 409.617 203.963 413.582 209.862 413.582C216.976 413.582 222.748 407.819 222.748 400.705C222.748 381.852 195.917 375.448 187.103 373.349C169.542 369.161 146.404 366.858 121.954 366.858C97.5032 366.858 74.3745 369.161 56.8142 373.349C48 375.458 21.1785 381.852 21.1785 400.705C21.1785 407.819 26.9412 413.582 34.0548 413.582Z" fill="#F7F7FF"/>
<path d="M-51.7894 709.411C-40.6983 709.411 -31.343 705.288 -28.4743 699.649C-16.5426 695.071 32.92 687.613 113.482 687.613C194.062 687.613 243.506 695.071 255.456 699.649C258.325 705.288 267.68 709.411 278.771 709.411C292.146 709.411 303 703.418 303 696.021C303 676.415 252.551 669.755 235.978 667.572C202.96 663.217 159.454 660.822 113.482 660.822C67.5091 660.822 24.0215 663.217 -8.9962 667.572C-25.569 669.765 -76 676.415 -76 696.021C-76 703.418 -65.1646 709.411 -51.7894 709.411Z" fill="#F7F7FF"/>
<path d="M-51.7894 641.388C-40.6983 641.388 -31.343 637.264 -28.4743 631.625C-16.5426 627.047 32.92 619.589 113.482 619.589C194.062 619.589 243.506 627.047 255.456 631.625C258.325 637.264 267.68 641.388 278.771 641.388C292.146 641.388 303 635.395 303 627.997C303 608.391 252.551 601.732 235.978 599.549C202.96 595.193 159.454 592.798 113.482 592.798C67.5091 592.798 24.0215 595.193 -8.9962 599.549C-25.569 601.742 -76 608.391 -76 627.997C-76 635.395 -65.1646 641.388 -51.7894 641.388Z" fill="#F7F7FF"/>
<path d="M-51.7072 568.496C-40.616 568.496 -25.422 559.514 -22.5533 553.874C-10.6216 549.296 32.9179 541.838 113.48 541.838C194.06 541.838 237.599 549.296 249.549 553.874C252.418 559.514 262.753 568.496 273.844 568.496C287.219 568.496 298.139 561.272 298.139 553.874C298.139 534.269 252.549 523.981 235.976 521.798C202.958 517.442 159.452 515.047 113.48 515.047C67.507 515.047 24.0194 517.442 -8.99824 521.798C-25.571 523.991 -71.1431 529.454 -71.1431 549.06C-71.1431 556.458 -65.0823 568.496 -51.7072 568.496Z" fill="#F7F7FF"/>
<path d="M-51.7051 490.759C-40.614 490.759 -25.42 481.776 -22.5513 476.137C-10.6196 471.559 32.92 464.101 113.482 464.101C194.062 464.101 237.601 471.559 249.551 476.137C252.42 481.776 267.614 490.759 278.705 490.759C292.08 490.759 298.141 483.535 298.141 476.137C298.141 456.531 252.551 446.244 235.978 444.061C202.96 439.705 159.454 437.31 113.482 437.31C67.5091 437.31 24.0215 439.705 -8.9962 444.061C-25.569 446.254 -76 456.531 -76 476.137C-76 483.535 -65.0803 490.759 -51.7051 490.759Z" fill="#F7F7FF"/>
<path d="M34.0742 366.84C40.7018 366.84 46.1536 361.835 46.8727 355.402C48.5247 353.672 54.6276 349.62 68.9908 346.024C83.7232 342.331 102.527 340.3 121.963 340.3C141.409 340.3 160.233 342.331 174.946 346.024C189.318 349.62 195.412 353.672 197.064 355.402C197.783 361.835 203.244 366.84 209.862 366.84C216.976 366.84 222.748 361.067 222.748 353.954C222.748 340.32 210.999 329.853 187.832 322.866C170.057 317.492 146.666 314.548 121.954 314.548C97.2506 314.548 73.8595 317.502 56.0853 322.866C32.9177 329.853 21.1785 340.32 21.1785 353.954C21.1979 361.077 26.9606 366.84 34.0742 366.84Z" fill="#F7F7FF"/>
<path d="M34.0548 314.566C41.1294 314.566 46.8533 308.881 46.9408 301.826C48.7969 296.676 73.5096 283.974 121.954 283.974C170.398 283.974 195.11 296.676 196.986 301.826C197.064 308.881 202.797 314.566 209.862 314.566C216.976 314.566 222.748 308.804 222.748 301.69C222.748 271.662 172.127 258.212 121.954 258.212C71.7993 258.212 21.1785 271.662 21.1785 301.69C21.1785 308.804 26.9412 314.566 34.0548 314.566Z" fill="#F7F7FF"/>
<path d="M72.9203 248.532C79.1593 248.532 84.3681 244.09 85.5537 238.201C89.4408 235.179 103.979 230.233 125.708 230.233C147.438 230.233 161.976 235.189 165.872 238.201C167.058 244.09 172.267 248.532 178.506 248.532C185.619 248.532 191.392 242.759 191.392 235.646C191.392 221.807 178.263 214.354 167.262 210.534C155.98 206.618 141.218 204.461 125.718 204.461C110.218 204.461 95.4757 206.618 84.1737 210.534C73.173 214.354 60.0538 221.807 60.0538 235.646C60.0343 242.759 65.8068 248.532 72.9203 248.532Z" fill="#F7F7FF"/>
<path d="M72.93 204.473C79.9463 204.473 85.6508 198.876 85.8063 191.898C87.2834 188.438 100.636 179.799 123.531 179.799C146.437 179.799 159.779 188.438 161.266 191.898C161.431 198.876 167.136 204.473 174.142 204.473C181.246 204.473 187.019 198.701 187.019 191.597C187.019 170.538 159.138 154.047 123.531 154.047C87.9442 154.047 60.0537 170.538 60.0537 191.597C60.044 198.71 65.8067 204.473 72.93 204.473Z" fill="#F7F7FF"/>
<path d="M72.93 154.039C80.0435 154.039 85.816 148.267 85.816 141.163C85.816 135.75 99.3726 125.828 121.51 125.828C143.657 125.828 157.214 135.75 157.214 141.163C157.214 148.267 162.986 154.039 170.1 154.039C177.204 154.039 182.976 148.267 182.976 141.163C182.976 121.086 162.481 104.789 134.396 100.931V14.5769C134.396 7.4731 128.624 0 121.51 0C114.406 0 108.634 7.4731 108.634 14.5769V100.94C80.5489 104.789 60.0537 121.086 60.0537 141.173C60.044 148.276 65.8165 154.039 72.93 154.039Z" fill="#F7F7FF"/>
</g>
<defs>
<filter id="filter0_b_340_230" x="-394.487" y="-318.487" width="1015.97" height="1599.05" filterUnits="userSpaceOnUse" color-interpolation-filters="sRGB">
<feFlood flood-opacity="0" result="BackgroundImageFix"/>
<feGaussianBlur in="BackgroundImageFix" stdDeviation="159.244"/>
<feComposite in2="SourceAlpha" operator="in" result="effect1_backgroundBlur_340_230"/>
<feBlend mode="normal" in="SourceGraphic" in2="effect1_backgroundBlur_340_230" result="shape"/>
</filter>
</defs>
</svg>
