<svg width="24" height="24" viewBox="0 0 24 24" fill="none" xmlns="http://www.w3.org/2000/svg">
<path fill-rule="evenodd" clip-rule="evenodd" d="M21.7071 11.2929C22.0976 11.6834 22.0976 12.3166 21.7071 12.7071L17.7071 16.7071C17.3166 17.0976 16.6834 17.0976 16.2929 16.7071C15.9024 16.3166 15.9024 15.6834 16.2929 15.2929L19.5858 12L16.2929 8.70711C15.9024 8.31658 15.9024 7.68342 16.2929 7.29289C16.6834 6.90237 17.3166 6.90237 17.7071 7.29289L21.7071 11.2929Z" fill="white"/>
<path fill-rule="evenodd" clip-rule="evenodd" d="M22 12C22 12.5523 21.5523 13 21 13L9 13C8.44771 13 8 12.5523 8 12C8 11.4477 8.44771 11 9 11L21 11C21.5523 11 22 11.4477 22 12Z" fill="white"/>
<path fill-rule="evenodd" clip-rule="evenodd" d="M12 5C12 5.55228 11.5523 6 11 6H6C4.89543 6 4 6.89543 4 8L4 16C4 17.1046 4.89543 18 6 18H11C11.5523 18 12 18.4477 12 19C12 19.5523 11.5523 20 11 20H6C3.79086 20 2 18.2091 2 16L2 8C2 5.79086 3.79086 4 6 4L11 4C11.5523 4 12 4.44772 12 5Z" fill="white"/>
</svg>
