<svg width="920" height="1183" viewBox="0 0 920 1183" fill="none" xmlns="http://www.w3.org/2000/svg">
<g filter="url(#filter0_i_321_37)">
<path fill-rule="evenodd" clip-rule="evenodd" d="M200.622 477.819C228.683 373.199 160.951 243.398 231.158 160.912C300.411 79.5493 429.684 70.7275 535.68 84.1681C631.378 96.3027 691.034 189.934 778.63 230.333C867.313 271.233 994.086 242.167 1050.74 321.713C1107.02 400.72 1042.95 509.864 1046.76 606.788C1050.85 710.853 1114.37 815.72 1073.92 911.69C1031.96 1011.24 938.478 1100.51 831.717 1117.02C726.017 1133.36 640.589 1036.45 542.479 993.858C472.189 963.346 404.788 937.442 336.767 902.161C244.871 854.496 104.679 848.948 73.0531 750.375C41.7746 652.885 174.098 576.708 200.622 477.819Z" fill="#1C0C1F"/>
</g>
<path fill-rule="evenodd" clip-rule="evenodd" d="M301.323 453.314C326.267 360.316 266.059 244.934 328.468 171.612C390.027 99.2874 504.94 91.4456 599.161 103.393C684.228 114.18 737.257 197.41 815.122 233.321C893.954 269.677 1006.64 243.84 1057.01 314.549C1107.03 384.78 1050.08 481.799 1053.47 567.956C1057.1 660.461 1113.56 753.678 1077.61 838.988C1040.31 927.478 957.213 1006.83 862.312 1021.51C768.354 1036.03 692.415 949.886 605.204 912.028C542.723 884.905 482.809 861.879 422.345 830.517C340.657 788.147 216.039 783.215 187.926 695.592C160.122 608.933 277.746 541.218 301.323 453.314Z" fill="url(#paint0_linear_321_37)"/>
<g opacity="0.25" filter="url(#filter1_b_321_37)">
<path d="M676.723 506.502C680.9 506.502 684.422 503.695 685.503 499.855C689.996 496.738 708.621 491.66 738.958 491.66C769.301 491.66 787.92 496.738 792.42 499.855C793.5 503.695 797.023 506.502 801.199 506.502C806.236 506.502 810.323 502.422 810.323 497.385C810.323 484.037 791.326 479.502 785.085 478.016C772.652 475.051 756.269 473.42 738.958 473.42C721.646 473.42 705.271 475.051 692.837 478.016C686.597 479.509 667.606 484.037 667.606 497.385C667.606 502.422 671.687 506.502 676.723 506.502Z" fill="#F7F7FF"/>
<path d="M615.942 894.855C623.795 894.855 630.419 891.935 632.45 887.943C640.898 884.701 675.919 879.421 732.959 879.421C790.012 879.421 825.019 884.701 833.48 887.943C835.511 891.935 842.135 894.855 849.988 894.855C859.458 894.855 867.143 890.611 867.143 885.374C867.143 871.492 831.423 866.777 819.689 865.232C796.312 862.148 765.509 860.452 732.959 860.452C700.409 860.452 669.619 862.148 646.241 865.232C634.507 866.784 598.801 871.492 598.801 885.374C598.801 890.611 606.473 894.855 615.942 894.855Z" fill="#F7F7FF"/>
<path d="M615.942 853.571C623.795 853.571 630.419 850.652 632.45 846.659C640.898 843.418 675.919 838.137 732.959 838.137C790.012 838.137 825.019 843.418 833.48 846.659C835.511 850.652 842.135 853.571 849.988 853.571C859.458 853.571 867.143 849.328 867.143 844.09C867.143 830.209 831.423 825.494 819.689 823.948C796.312 820.864 765.509 819.168 732.959 819.168C700.409 819.168 669.619 820.864 646.241 823.948C634.507 825.501 598.801 830.209 598.801 844.09C598.801 849.328 606.473 853.571 615.942 853.571Z" fill="#F7F7FF"/>
<path d="M615.942 812.288C623.795 812.288 630.419 809.368 632.45 805.376C640.898 802.134 675.919 796.854 732.959 796.854C790.012 796.854 825.019 802.134 833.48 805.376C835.511 809.368 842.135 812.288 849.988 812.288C859.458 812.288 867.143 808.044 867.143 802.807C867.143 788.925 831.423 784.21 819.689 782.665C796.312 779.581 765.509 777.885 732.959 777.885C700.409 777.885 669.619 779.581 646.241 782.665C634.507 784.217 598.801 788.925 598.801 802.807C598.801 808.044 606.473 812.288 615.942 812.288Z" fill="#F7F7FF"/>
<path d="M615.942 764.124C623.795 764.124 630.419 761.204 632.45 757.212C640.898 753.97 675.919 748.69 732.959 748.69C790.012 748.69 825.019 753.97 833.48 757.212C835.511 761.204 842.135 764.124 849.988 764.124C859.458 764.124 867.143 759.881 867.143 754.643C867.143 740.762 831.423 736.046 819.689 734.501C796.312 731.417 765.509 729.721 732.959 729.721C700.409 729.721 669.619 731.417 646.241 734.501C634.507 736.053 598.801 740.762 598.801 754.643C598.801 759.881 606.473 764.124 615.942 764.124Z" fill="#F7F7FF"/>
<path d="M615.942 715.96C623.795 715.96 630.419 713.04 632.45 709.048C640.898 705.806 675.919 700.526 732.959 700.526C790.012 700.526 825.019 705.806 833.48 709.048C835.511 713.04 842.135 715.96 849.988 715.96C859.458 715.96 867.143 711.717 867.143 706.479C867.143 692.598 831.423 687.882 819.689 686.337C796.312 683.253 765.509 681.557 732.959 681.557C700.409 681.557 669.619 683.253 646.241 686.337C634.507 687.889 598.801 692.598 598.801 706.479C598.801 711.717 606.473 715.96 615.942 715.96Z" fill="#F7F7FF"/>
<path d="M615.942 667.796C623.795 667.796 630.419 664.876 632.45 660.884C640.898 657.642 675.919 652.362 732.959 652.362C790.012 652.362 825.019 657.642 833.48 660.884C835.511 664.876 842.135 667.796 849.988 667.796C859.458 667.796 867.143 663.553 867.143 658.315C867.143 644.433 831.423 639.718 819.689 638.173C796.312 635.089 765.509 633.393 732.959 633.393C700.409 633.393 669.619 635.089 646.241 638.173C634.507 639.725 598.801 644.433 598.801 658.315C598.801 663.553 606.473 667.796 615.942 667.796Z" fill="#F7F7FF"/>
<path d="M616.002 616.191C623.855 616.191 634.613 609.832 636.644 605.839C645.092 602.598 675.919 597.317 732.959 597.317C790.012 597.317 820.839 602.598 829.3 605.839C831.331 609.832 838.648 616.191 846.501 616.191C855.971 616.191 863.702 611.077 863.702 605.839C863.702 591.958 831.423 584.674 819.689 583.128C796.312 580.044 765.509 578.348 732.959 578.348C700.409 578.348 669.619 580.044 646.241 583.128C634.507 584.681 602.241 588.549 602.241 602.43C602.241 607.668 606.532 616.191 616.002 616.191Z" fill="#F7F7FF"/>
<path d="M616.002 561.147C623.855 561.147 634.613 554.787 636.644 550.795C645.092 547.553 675.919 542.273 732.959 542.273C790.012 542.273 820.839 547.553 829.3 550.795C831.331 554.787 842.089 561.147 849.941 561.147C859.411 561.147 863.702 556.032 863.702 550.795C863.702 536.913 831.423 529.629 819.689 528.084C796.312 525 765.509 523.304 732.959 523.304C700.409 523.304 669.619 525 646.241 528.084C634.507 529.636 598.801 536.913 598.801 550.795C598.801 556.032 606.532 561.147 616.002 561.147Z" fill="#F7F7FF"/>
<path d="M676.737 473.407C681.429 473.407 685.289 469.864 685.799 465.309C686.968 464.084 691.289 461.215 701.459 458.669C711.89 456.055 725.204 454.617 738.965 454.617C752.733 454.617 766.06 456.055 776.477 458.669C786.654 461.215 790.968 464.084 792.138 465.309C792.647 469.864 796.514 473.407 801.199 473.407C806.236 473.407 810.323 469.32 810.323 464.284C810.323 454.63 802.004 447.22 785.601 442.273C773.017 438.468 756.455 436.383 738.958 436.383C721.467 436.383 704.906 438.475 692.321 442.273C675.918 447.22 667.606 454.63 667.606 464.284C667.62 469.327 671.7 473.407 676.737 473.407Z" fill="#F7F7FF"/>
<path d="M676.723 436.397C681.732 436.397 685.785 432.372 685.847 427.377C687.161 423.73 704.658 414.737 738.958 414.737C773.257 414.737 790.755 423.73 792.083 427.377C792.138 432.372 796.197 436.397 801.199 436.397C806.236 436.397 810.323 432.317 810.323 427.281C810.323 406.02 774.482 396.497 738.958 396.497C703.447 396.497 667.606 406.02 667.606 427.281C667.606 432.317 671.687 436.397 676.723 436.397Z" fill="#F7F7FF"/>
<path d="M704.239 389.643C708.656 389.643 712.344 386.498 713.183 382.329C715.936 380.189 726.229 376.687 741.614 376.687C756.999 376.687 767.292 380.196 770.051 382.329C770.891 386.498 774.579 389.643 778.996 389.643C784.033 389.643 788.12 385.556 788.12 380.519C788.12 370.721 778.824 365.444 771.035 362.74C763.047 359.967 752.595 358.439 741.621 358.439C730.646 358.439 720.208 359.967 712.206 362.74C704.418 365.444 695.129 370.721 695.129 380.519C695.115 385.556 699.202 389.643 704.239 389.643Z" fill="#F7F7FF"/>
<path d="M704.246 358.45C709.213 358.45 713.252 354.486 713.362 349.546C714.408 347.097 723.862 340.98 740.073 340.98C756.29 340.98 765.737 347.097 766.79 349.546C766.907 354.486 770.946 358.45 775.907 358.45C780.936 358.45 785.023 354.363 785.023 349.333C785.023 334.423 765.283 322.746 740.073 322.746C714.876 322.746 695.129 334.423 695.129 349.333C695.122 354.369 699.202 358.45 704.246 358.45Z" fill="#F7F7FF"/>
<path d="M704.246 322.742C709.282 322.742 713.369 318.655 713.369 313.626C713.369 309.793 722.968 302.768 738.641 302.768C754.322 302.768 763.921 309.793 763.921 313.626C763.921 318.655 768.008 322.742 773.044 322.742C778.074 322.742 782.161 318.655 782.161 313.626C782.161 299.41 767.65 287.872 747.765 285.14V223.999C747.765 218.97 743.678 213.679 738.641 213.679C733.612 213.679 729.525 218.97 729.525 223.999V285.147C709.64 287.872 695.129 299.41 695.129 313.633C695.122 318.662 699.209 322.742 704.246 322.742Z" fill="#F7F7FF"/>
</g>
<path opacity="0.15" d="M685.119 268.856C678.867 269.354 657.617 258.301 655.8 253.967C655.194 252.522 660.11 254.708 666.721 258.732C678.137 265.413 684.954 265.527 696.235 258.674C717.748 245.406 711.472 199.618 683.847 170.426C658.33 143.324 608.599 136.993 565.159 155.208C535.589 167.606 520.796 184.427 481.814 252.165C464.982 281.734 444.596 312.368 436.318 320.511C410.52 347.044 379.766 354.417 336.577 345.343C313.895 340.413 302.96 332.681 302.644 320.921C302.315 306.193 308.265 304.972 339.762 312.578C366.534 319.191 373.352 319.306 390.182 313.948C416.212 305.581 428.925 292.606 462.879 239.293C514.16 158.328 539.269 136.757 588.051 132.017C644.917 126.012 688.959 149.594 708.498 196.193C714.597 211.474 716.261 239.658 711.702 250.065C707.363 259.529 694.443 268.344 685.119 268.856Z" fill="#F7F7FF"/>
<path opacity="0.15" d="M418.311 652.857C414.513 652.985 402.691 646.737 401.969 644.425C401.728 643.654 404.495 644.905 408.123 647.156C414.411 650.902 418.496 651.107 425.858 647.752C439.914 641.249 440.052 617.099 425.949 601.201C412.933 586.444 383.598 582.069 355.948 590.701C337.126 596.577 326.804 605.087 297.605 639.79C284.969 654.942 270.108 670.578 264.44 674.674C246.678 688.043 227.574 691.259 202.403 685.583C189.198 682.516 183.289 678.228 184.104 672.053C185.163 664.321 188.841 663.807 207.113 668.464C222.632 672.501 226.717 672.706 237.285 670.252C253.636 666.416 262.381 659.88 287.328 632.636C325.045 591.256 341.97 580.474 371.679 579.023C406.353 577.079 430.797 590.383 438.557 615.239C440.917 623.384 439.511 638.202 435.884 643.564C432.47 648.436 423.956 652.786 418.311 652.857Z" fill="#F7F7FF"/>
<path opacity="0.15" d="M555.471 466.142C551.127 466.289 537.607 459.143 536.781 456.499C536.506 455.617 539.67 457.048 543.819 459.622C551.01 463.907 555.683 464.141 564.102 460.303C580.178 452.866 580.335 425.247 564.206 407.065C549.32 390.188 515.771 385.184 484.148 395.057C462.622 401.777 450.817 411.509 417.423 451.198C402.972 468.527 385.976 486.41 379.494 491.094C359.179 506.384 337.33 510.061 308.544 503.57C293.441 500.063 286.684 495.159 287.615 488.096C288.826 479.254 293.033 478.666 313.93 483.992C331.678 488.609 336.351 488.843 348.437 486.037C367.137 481.65 377.138 474.174 405.67 443.017C448.806 395.691 468.162 383.36 502.139 381.701C541.795 379.478 569.751 394.693 578.626 423.12C581.325 432.435 579.717 449.382 575.569 455.514C571.664 461.087 561.927 466.061 555.471 466.142Z" fill="#F7F7FF"/>
<defs>
<filter id="filter0_i_321_37" x="68.2995" y="65.9446" width="1019.04" height="1052.91" filterUnits="userSpaceOnUse" color-interpolation-filters="sRGB">
<feFlood flood-opacity="0" result="BackgroundImageFix"/>
<feBlend mode="normal" in="SourceGraphic" in2="BackgroundImageFix" result="shape"/>
<feColorMatrix in="SourceAlpha" type="matrix" values="0 0 0 0 0 0 0 0 0 0 0 0 0 0 0 0 0 0 127 0" result="hardAlpha"/>
<feOffset dy="-13.0879"/>
<feGaussianBlur stdDeviation="55.9871"/>
<feComposite in2="hardAlpha" operator="arithmetic" k2="-1" k3="1"/>
<feColorMatrix type="matrix" values="0 0 0 0 0.420833 0 0 0 0 0.415573 0 0 0 0 0.415573 0 0 0 0.25 0"/>
<feBlend mode="normal" in2="shape" result="effect1_innerShadow_321_37"/>
</filter>
<filter id="filter1_b_321_37" x="373.303" y="-11.8189" width="719.337" height="1132.17" filterUnits="userSpaceOnUse" color-interpolation-filters="sRGB">
<feFlood flood-opacity="0" result="BackgroundImageFix"/>
<feGaussianBlur in="BackgroundImageFix" stdDeviation="112.749"/>
<feComposite in2="SourceAlpha" operator="in" result="effect1_backgroundBlur_321_37"/>
<feBlend mode="normal" in="SourceGraphic" in2="effect1_backgroundBlur_321_37" result="shape"/>
</filter>
<linearGradient id="paint0_linear_321_37" x1="311.2" y1="222.999" x2="1441.72" y2="1193.88" gradientUnits="userSpaceOnUse">
<stop stop-color="#56235C"/>
<stop offset="0.294825" stop-color="#D43752"/>
<stop offset="0.402713" stop-color="#E4462D"/>
<stop offset="0.638994" stop-color="#F8B810"/>
<stop offset="0.827343" stop-color="#29499C"/>
<stop offset="1" stop-color="#2C3384"/>
</linearGradient>
</defs>
</svg>
