<svg width="115" height="40" viewBox="0 0 115 40" fill="none" xmlns="http://www.w3.org/2000/svg">
<g clip-path="url(#clip0_1436_3067)">
<path d="M39.6528 14.7611V5.099H44.1258C44.7613 5.099 45.3131 5.21989 45.7811 5.46478C46.2492 5.70966 46.6181 6.04754 46.8847 6.47842C47.1512 6.91239 47.2845 7.41456 47.2845 7.98183C47.2845 8.54909 47.1512 9.05436 46.8847 9.48524C46.6181 9.91921 46.2461 10.2571 45.7749 10.4989C45.3007 10.7438 44.752 10.8647 44.1258 10.8647H41.1035V14.758H39.6528V14.7611ZM41.1035 9.64023H43.9739C44.5443 9.64023 44.9969 9.49144 45.3348 9.19075C45.6726 8.89007 45.84 8.49329 45.84 7.99732C45.84 7.50135 45.6726 7.10458 45.3348 6.8101C45 6.51561 44.5443 6.36992 43.9739 6.36992H41.1035V9.64023Z" fill="white"/>
<path d="M51.4569 14.9007C50.7749 14.9007 50.1581 14.7395 49.6001 14.4171C49.0422 14.0947 48.6051 13.6577 48.2827 13.1059C47.9603 12.5541 47.7991 11.9373 47.7991 11.2553C47.7991 10.5734 47.9603 9.95649 48.2827 9.40473C48.6051 8.85296 49.0453 8.41279 49.6001 8.0873C50.1581 7.76182 50.7749 7.59753 51.4569 7.59753C52.1389 7.59753 52.7681 7.76182 53.3199 8.0873C53.8717 8.41589 54.3087 8.85296 54.6311 9.40473C54.9535 9.95649 55.1147 10.5734 55.1147 11.2553C55.1147 11.9373 54.9535 12.5541 54.6311 13.1059C54.3087 13.6577 53.8717 14.0947 53.3199 14.4171C52.7681 14.7395 52.1482 14.9007 51.4569 14.9007ZM51.4569 13.6856C51.8909 13.6856 52.2815 13.5771 52.6317 13.3601C52.982 13.1431 53.2579 12.8517 53.4594 12.4828C53.6609 12.114 53.7632 11.7017 53.7632 11.2398C53.7632 10.7779 53.6609 10.3812 53.4532 10.0185C53.2455 9.65581 52.9696 9.36133 52.6255 9.14124C52.2815 8.92115 51.8909 8.80956 51.46 8.80956C51.0291 8.80956 50.6386 8.92115 50.2945 9.14124C49.9504 9.36133 49.6745 9.65271 49.4668 10.0185C49.2591 10.3812 49.1568 10.7903 49.1568 11.2398C49.1568 11.6893 49.2591 12.114 49.4606 12.4828C49.6621 12.8517 49.938 13.1431 50.2883 13.3601C50.6386 13.5771 51.0291 13.6856 51.4631 13.6856H51.4569Z" fill="white"/>
<path d="M57.8766 14.761L55.9175 7.73376H57.2566L58.6237 12.8981L60.2263 7.73376H61.4135L63.0161 12.8981L64.3831 7.73376H65.6819L63.7074 14.761H62.3837L60.809 9.61225L59.2219 14.761H57.8828H57.8766Z" fill="white"/>
<path d="M70.1612 14.8856C69.4699 14.8856 68.8469 14.7244 68.2889 14.402C67.7309 14.0797 67.2908 13.6426 66.9653 13.0908C66.6398 12.5391 66.4755 11.9222 66.4755 11.2402C66.4755 10.5583 66.6305 9.96001 66.9436 9.41134C67.2567 8.86268 67.6813 8.4256 68.2145 8.10012C68.7477 7.77464 69.3428 7.61035 69.9938 7.61035C70.6448 7.61035 71.2275 7.77464 71.7328 8.10012C72.2381 8.4287 72.641 8.86888 72.9417 9.42684C73.2393 9.98481 73.3912 10.611 73.3912 11.3115V11.699H67.8549C67.9293 12.0865 68.075 12.4306 68.2889 12.7343C68.5059 13.0381 68.7818 13.2768 69.1166 13.4535C69.4513 13.6271 69.8171 13.717 70.2139 13.717C70.5549 13.717 70.8834 13.6643 71.1996 13.5589C71.5158 13.4535 71.7824 13.2985 71.9932 13.097L72.8766 13.9681C72.4613 14.2812 72.0366 14.5136 71.5995 14.6655C71.1624 14.8174 70.682 14.8949 70.1581 14.8949L70.1612 14.8856ZM67.8704 10.6606H72.0242C71.9684 10.2917 71.8413 9.96931 71.6429 9.68723C71.4445 9.40514 71.2027 9.18506 70.9113 9.02387C70.62 8.86268 70.3069 8.78208 69.9659 8.78208C69.6249 8.78208 69.2932 8.85958 68.9988 9.01767C68.7043 9.17576 68.4594 9.39274 68.261 9.67483C68.0626 9.95691 67.9324 10.2855 67.8673 10.6606H67.8704Z" fill="white"/>
<path d="M74.9814 14.7613V7.73399H76.3608V8.63294C76.5809 8.30126 76.8568 8.04087 77.1822 7.85179C77.5077 7.6627 77.8797 7.5697 78.2951 7.5697C78.5803 7.579 78.8158 7.6193 78.9987 7.69369V8.93672C78.8685 8.88092 78.7353 8.84373 78.5989 8.81893C78.4594 8.79723 78.323 8.78483 78.1835 8.78483C77.7774 8.78483 77.4178 8.89332 77.1048 9.11031C76.7917 9.3273 76.5437 9.64038 76.3608 10.0558V14.7644H74.9814V14.7613Z" fill="white"/>
<path d="M83.3447 14.8856C82.6534 14.8856 82.0304 14.7244 81.4724 14.402C80.9175 14.0797 80.4743 13.6426 80.1488 13.0908C79.8202 12.5391 79.659 11.9222 79.659 11.2402C79.659 10.5583 79.8171 9.96001 80.1271 9.41134C80.4402 8.86268 80.8648 8.4256 81.398 8.10012C81.9312 7.77464 82.5263 7.61035 83.1804 7.61035C83.8345 7.61035 84.4141 7.77464 84.9194 8.10012C85.4247 8.4287 85.8276 8.86888 86.1283 9.42684C86.429 9.98481 86.5778 10.611 86.5778 11.3115V11.699H81.0415C81.1159 12.0865 81.2616 12.4306 81.4755 12.7343C81.6925 13.0381 81.9684 13.2768 82.3032 13.4535C82.6379 13.6271 83.0037 13.717 83.4005 13.717C83.7415 13.717 84.0701 13.6643 84.3862 13.5589C84.7024 13.4535 84.969 13.2985 85.1798 13.097L86.0632 13.9681C85.6479 14.2812 85.2232 14.5136 84.7861 14.6655C84.349 14.8174 83.8686 14.8949 83.3447 14.8949V14.8856ZM81.0539 10.6606H85.2077C85.1519 10.2917 85.0248 9.96931 84.8295 9.68723C84.6311 9.40514 84.3862 9.18506 84.0979 9.02387C83.8066 8.86268 83.4935 8.78208 83.1525 8.78208C82.8115 8.78208 82.4798 8.85958 82.1854 9.01767C81.8909 9.17576 81.646 9.39274 81.4476 9.67483C81.2492 9.95691 81.119 10.2855 81.0539 10.6606Z" fill="white"/>
<path d="M91.4073 14.8729C90.7532 14.8729 90.155 14.7117 89.6125 14.3894C89.07 14.067 88.6423 13.633 88.3292 13.0843C88.0161 12.5357 87.8611 11.9219 87.8611 11.24C87.8611 10.558 88.0192 9.94733 88.3385 9.40487C88.6547 8.8624 89.0856 8.42843 89.628 8.10605C90.1705 7.78366 90.7749 7.62247 91.4352 7.62247C91.8227 7.62247 92.1947 7.68137 92.5542 7.80226C92.9138 7.92316 93.2455 8.09675 93.5493 8.32613V5.09613L94.9287 4.83264V14.7582H93.5617V14.0825C92.9634 14.6064 92.2443 14.8698 91.4073 14.8698V14.8729ZM91.5871 13.6733C91.9901 13.6733 92.3621 13.5989 92.6968 13.4532C93.0316 13.3075 93.3168 13.0936 93.5462 12.8178V9.65595C93.3168 9.39867 93.0347 9.19408 92.6968 9.04219C92.359 8.8903 91.9901 8.8159 91.5871 8.8159C91.1438 8.8159 90.7439 8.9213 90.3844 9.13208C90.0248 9.34287 89.7396 9.63115 89.5288 9.99383C89.318 10.3565 89.2126 10.7688 89.2126 11.2307C89.2126 11.6925 89.318 12.1048 89.5288 12.4737C89.7396 12.8426 90.0248 13.1339 90.3844 13.3509C90.7439 13.5679 91.1438 13.6764 91.5871 13.6764V13.6733Z" fill="white"/>
<path d="M99.9938 14.7611V5.09893L101.373 4.83545V8.39714C101.962 7.88257 102.675 7.62528 103.512 7.62528C104.175 7.62528 104.777 7.78647 105.313 8.10885C105.852 8.43123 106.277 8.86211 106.59 9.40767C106.903 9.95014 107.058 10.5639 107.058 11.2428C107.058 11.9216 106.9 12.5385 106.581 13.0872C106.265 13.6358 105.837 14.0698 105.298 14.3922C104.758 14.7146 104.154 14.8757 103.481 14.8757C103.094 14.8757 102.719 14.8138 102.356 14.6898C101.993 14.5658 101.658 14.3891 101.355 14.1566V14.7642H99.9876L99.9938 14.7611ZM103.335 13.6699C103.785 13.6699 104.188 13.5645 104.544 13.3537C104.898 13.143 105.18 12.8547 105.394 12.492C105.604 12.1293 105.71 11.717 105.71 11.2552C105.71 10.7933 105.604 10.381 105.394 10.0121C105.183 9.64326 104.898 9.35498 104.544 9.14109C104.191 8.9303 103.788 8.82491 103.335 8.82491C102.939 8.82491 102.57 8.89931 102.232 9.045C101.891 9.19069 101.606 9.39838 101.376 9.66496V12.8392C101.606 13.0965 101.894 13.2979 102.238 13.4467C102.582 13.5955 102.948 13.6668 103.335 13.6668V13.6699Z" fill="white"/>
<path d="M108.912 17.7314C108.766 17.7314 108.627 17.7252 108.497 17.7097C108.366 17.6942 108.261 17.6756 108.18 17.6477V16.4325C108.345 16.4697 108.549 16.4883 108.788 16.4883C109.433 16.4883 109.898 16.1442 110.183 15.453L110.487 14.7772L107.672 7.73755H109.203L111.246 13.094L113.509 7.73755H115L111.606 15.6328C111.386 16.1287 111.15 16.5317 110.902 16.8417C110.654 17.1486 110.369 17.3749 110.047 17.5175C109.724 17.6601 109.346 17.7314 108.915 17.7314H108.912Z" fill="white"/>
<path d="M44.3335 30.1953V27.5635H50.5734C51.5282 27.5635 52.2721 27.2938 52.8053 26.7514C53.3385 26.2089 53.6082 25.496 53.6082 24.6125C53.6082 23.7291 53.3416 23.0006 52.8053 22.4736C52.269 21.9467 51.5251 21.6832 50.5734 21.6832H42.3465V34.8233H39.6528V18.9615H50.5734C51.4724 18.9615 52.2721 19.0948 52.9789 19.3583C53.6826 19.6218 54.2777 19.9938 54.7644 20.4712C55.248 20.9485 55.6199 21.5313 55.8772 22.2133C56.1345 22.8983 56.2616 23.6671 56.2616 24.5257C56.2616 25.3844 56.1314 26.1345 55.8772 26.8258C55.6199 27.517 55.248 28.1122 54.7644 28.6144C54.2808 29.1134 53.6857 29.5009 52.9789 29.7799C52.2752 30.0589 51.4724 30.1984 50.5734 30.1984H44.3335V30.1953Z" fill="white"/>
<path d="M65.0992 34.8202V28.6113L56.8506 18.9585H60.5052L66.553 26.1284L72.6224 18.9585H76.0849L67.8115 28.6113V34.8202H65.0992Z" fill="white"/>
<path d="M85.4433 34.8202V21.677H78.2951V18.9585H95.3131V21.677H88.1557V34.8202H85.4433Z" fill="white"/>
<path d="M112.297 18.9585H115V34.8202H112.297V18.9585Z" fill="white"/>
<path d="M100.629 34.8202V27.7837H110.688V25.3751H100.629V18.9585H97.9262V34.8202H100.629Z" fill="white"/>
<path d="M15.8617 0C12.9727 0 10.2635 0.771854 7.92932 2.12337C6.43521 2.98512 5.09609 4.08556 3.96466 5.37198C1.49721 8.16801 0 11.8413 0 15.8617V27.7588L3.96466 31.7235V15.8617C3.96466 12.3404 5.49597 9.17235 7.92932 6.99318C9.07316 5.97024 10.4185 5.16429 11.894 4.64352C13.1339 4.20335 14.4699 3.96466 15.8586 3.96466C22.4272 3.96466 27.7557 9.29014 27.7557 15.8617C27.7557 22.4334 22.4303 27.7588 15.8586 27.7588V31.7235C24.6187 31.7235 31.7204 24.6218 31.7204 15.8617C31.7204 7.10167 24.6249 0 15.8617 0Z" fill="white"/>
<path d="M19.8264 15.8618C19.8264 18.0503 18.0502 19.8265 15.8618 19.8265V23.7911C20.2418 23.7911 23.7942 20.2387 23.7942 15.8587C23.7942 11.4787 20.2418 7.92627 15.8618 7.92627C14.4173 7.92627 13.0626 8.31065 11.8971 8.98951C9.52576 10.3596 7.93246 12.9232 7.93246 15.8587V35.6882L11.4972 39.253L11.8971 39.6529V15.8618C11.8971 13.6733 13.6733 11.8971 15.8618 11.8971C18.0502 11.8971 19.8264 13.6733 19.8264 15.8618Z" fill="white"/>
</g>
<defs>
<clipPath id="clip0_1436_3067">
<rect width="115" height="39.6559" fill="white"/>
</clipPath>
</defs>
</svg>
