<svg width="80" height="30" viewBox="0 0 107 37" fill="none" xmlns="http://www.w3.org/2000/svg">
<g clip-path="url(#clip0_1278_7875)">
<path d="M40.784 21.3149V18.8465H46.6314C47.5255 18.8465 48.2232 18.5924 48.7238 18.0842C49.2241 17.576 49.4746 16.9061 49.4746 16.0778C49.4746 15.2495 49.2241 14.5664 48.7238 14.0714C48.2232 13.5764 47.5255 13.3289 46.6314 13.3289H38.9221V25.3723H36.3984V10.7764H46.6314C47.4727 10.7764 48.2232 10.9001 48.885 11.1476C49.5453 11.3951 50.1032 11.7433 50.5576 12.1921C51.012 12.6409 51.3592 13.1853 51.5996 13.8272C51.84 14.4691 51.9602 15.1918 51.9602 15.9953C51.9602 16.7989 51.84 17.5034 51.5996 18.1535C51.3592 18.802 51.012 19.3613 50.5576 19.8299C50.1032 20.2985 49.5469 20.6632 48.885 20.9239C48.2251 21.1846 47.4727 21.3149 46.6314 21.3149H40.784Z" fill="#E6DAFE"/>
<path d="M60.2419 25.369V19.8283L52.5132 10.7764H55.9372L61.6051 17.5001L67.2912 10.7764H70.5358L62.7855 19.8283V25.369H60.2419Z" fill="#E6DAFE"/>
<path d="M79.3049 25.369V13.3256H72.6074V10.7764H88.5551V13.3256H81.8482V25.369H79.3049Z" fill="#E6DAFE"/>
<path d="M104.466 10.7766H107V25.3692H104.466V10.7766Z" fill="#E6DAFE"/>
<path d="M93.5345 25.3692V19.053H102.96V16.7941H93.5345V10.7766H91.001V25.3692H93.5345Z" fill="#E6DAFE"/>
<path d="M18.1992 14.592C18.1992 16.6066 16.5694 18.2401 14.5594 18.2401V21.8883C18.5794 21.8883 21.839 18.6213 21.839 14.592C21.839 10.5627 18.5794 7.29565 14.5594 7.29565C13.2342 7.29565 11.9896 7.65043 10.9196 8.27247C8.74329 9.53308 7.27979 11.8909 7.27979 14.592V32.8329L10.5525 36.1129L10.9196 36.481V14.592C10.9196 12.5773 12.5493 10.9438 14.5594 10.9438C16.5694 10.9438 18.1992 12.5773 18.1992 14.592Z" fill="#E6DAFE"/>
<path d="M14.5592 0C11.9071 0 9.42134 0.711151 7.27958 1.95361C5.90829 2.74726 4.68022 3.75871 3.63979 4.94177C1.3746 7.5141 0 10.8933 0 14.5927V25.5371L3.63979 29.1853V14.5927C3.63979 11.352 5.04568 8.43978 7.27958 6.43502C8.32988 5.49452 9.5629 4.75201 10.9194 4.27352C12.0569 3.8676 13.2834 3.64816 14.5592 3.64816C20.5893 3.64816 25.4786 8.54867 25.4786 14.5927C25.4786 20.6366 20.5893 25.5371 14.5592 25.5371V29.1853C22.601 29.1853 29.1184 22.6513 29.1184 14.5927C29.1184 6.534 22.601 0 14.5592 0Z" fill="#E6DAFE"/>
</g>
<defs>
<clipPath id="clip0_1278_7875">
<rect width="107" height="36.481" fill="white"/>
</clipPath>
</defs>
</svg>
