<svg width="32" height="33" viewBox="0 0 32 33" fill="none" xmlns="http://www.w3.org/2000/svg">
<path fill-rule="evenodd" clip-rule="evenodd" d="M2.6665 16.3809C2.6665 9.01714 8.63604 3.04761 15.9998 3.04761C23.3636 3.04761 29.3332 9.01714 29.3332 16.3809C29.3332 23.7447 23.3636 29.7143 15.9998 29.7143C8.63604 29.7143 2.6665 23.7447 2.6665 16.3809ZM15.9998 5.71427C10.1088 5.71427 5.33317 10.4899 5.33317 16.3809C5.33317 22.272 10.1088 27.0476 15.9998 27.0476C21.8909 27.0476 26.6665 22.272 26.6665 16.3809C26.6665 10.4899 21.8909 5.71427 15.9998 5.71427Z" fill="#F7F7FF"/>
<path fill-rule="evenodd" clip-rule="evenodd" d="M11.057 11.4381C11.5777 10.9174 12.4219 10.9174 12.9426 11.4381L15.9998 14.4953L19.057 11.4381C19.5777 10.9174 20.4219 10.9174 20.9426 11.4381C21.4633 11.9588 21.4633 12.8031 20.9426 13.3238L17.8855 16.3809L20.9426 19.4381C21.4633 19.9588 21.4633 20.8031 20.9426 21.3237C20.4219 21.8444 19.5777 21.8444 19.057 21.3237L15.9998 18.2666L12.9426 21.3237C12.4219 21.8444 11.5777 21.8444 11.057 21.3237C10.5363 20.8031 10.5363 19.9588 11.057 19.4381L14.1142 16.3809L11.057 13.3238C10.5363 12.8031 10.5363 11.9588 11.057 11.4381Z" fill="#F7F7FF"/>
</svg>
