<svg width="196" height="393" viewBox="0 0 196 393" fill="none" xmlns="http://www.w3.org/2000/svg">
<path opacity="0.15" d="M6.75399 318.146C10.6992 313.269 33.3478 305.475 37.7423 307.143C39.2072 307.699 34.2363 309.758 26.766 311.779C14.0594 315.455 9.28099 320.319 6.48099 333.217C1.28369 357.953 38.8037 384.938 78.994 385.015C116.218 385.18 155.059 353.484 171.771 309.444C183.148 279.466 181.14 257.156 158.876 182.24C149.031 149.672 140.861 113.793 140.658 102.183C139.189 65.2055 155.024 37.8296 191.349 12.7659C210.545 -0.283868 223.682 -2.88608 232.426 4.98458C243.331 14.8892 240.118 20.0435 212.911 37.6411C189.678 52.4974 184.899 57.3611 177.193 73.2536C165.33 97.8882 165.982 116.042 181.25 177.377C204.633 270.32 202.98 303.381 172.819 342.013C138.007 387.378 90.577 403.068 43.3354 385.14C28.0551 379.038 6.47487 360.833 2.07018 350.36C-1.80343 340.696 0.703338 325.258 6.75399 318.146Z" fill="#F7F7FF"/>
</svg>
