<svg width="249" height="232" viewBox="0 0 249 232" fill="none" xmlns="http://www.w3.org/2000/svg">
<path opacity="0.15" d="M179.541 221.86C176.929 218.152 175.983 200.859 178.011 198.131C178.688 197.222 179.137 201.087 179.067 206.682C179.113 216.247 181.552 220.531 189.97 225.028C206.147 233.531 232.331 212.767 240.327 184.828C247.797 158.969 233.427 125.69 206.098 105.363C187.495 91.5265 171.58 88.5139 115.074 89.1953C90.4753 89.6071 63.9057 88.1998 55.7904 86.0465C29.7807 79.7609 13.8687 63.3371 3.6139 33.1192C-1.66933 17.1884 -0.883239 7.53676 6.31904 3.01036C15.363 -2.61703 18.3132 0.636184 25.1767 23.0371C30.9187 42.1329 33.3573 46.4176 42.8883 54.9185C57.6786 68.0372 70.4344 71.1712 116.112 72.672C185.379 74.7749 208.048 82.4582 228.958 111.071C253.632 144.248 255.172 180.339 233.367 209.654C226.104 219.077 209.177 230.489 201.022 231.483C193.534 232.268 183.292 227.474 179.541 221.86Z" fill="#F7F7FF"/>
</svg>
