<svg width="1094" height="369" viewBox="0 0 1094 369" fill="none" xmlns="http://www.w3.org/2000/svg">
<path d="M449.9 234.08L412.653 129.059H377.672L340.426 234.08H359.686L370.024 203.956H420.301L430.639 234.08H449.9ZM395.233 131.27L415.061 188.755H375.265L395.233 131.27Z" fill="white"/>
<path d="M473.465 159.598H455.904V234.08H473.606V192.348C473.606 179.358 480.262 174.936 494 174.936H498.815V157.94C484.086 157.94 476.438 166.507 473.465 177.7V159.598Z" fill="white"/>
<path d="M539.717 235.738C557.987 235.738 572.574 226.065 576.398 208.377H558.553C555.721 218.05 549.772 223.578 539.717 223.578C526.972 223.578 519.465 213.352 519.465 196.77C519.465 180.464 526.83 170.1 539.717 170.1C549.915 170.1 555.721 177.009 557.704 185.577H575.69C572.432 168.994 559.261 157.94 539.717 157.94C516.775 157.94 501.479 173.555 501.479 196.77C501.479 219.985 516.633 235.738 539.717 235.738Z" fill="white"/>
<path d="M628.041 157.94C614.87 157.94 607.364 165.678 603.824 174.799V129.059H586.262V234.08H603.966V190.828C603.966 176.595 610.197 170.238 620.111 170.238C630.166 170.238 636.256 176.457 636.256 190.552V190.828V234.08H653.958V187.512V187.235C653.958 170.653 645.602 157.94 628.041 157.94Z" fill="white"/>
<path d="M751.571 232.284L738.827 159.598H707.387L694.636 232.284L678.775 159.598H662.205L678.634 234.08H710.639L723.103 161.257L735.567 234.08H767.575L784.002 159.598H767.431L751.571 232.284Z" fill="white"/>
<path d="M824.421 157.94C805.725 157.94 792.701 167.198 790.856 181.846H808.705C809.695 175.627 814.937 170.1 824.421 170.1C835.047 170.1 840.145 177.147 840.145 185.853V186.13V187.096L819.891 189.17C805.445 190.551 788.307 194.282 788.307 211.556C788.307 225.65 799.924 235.738 814.369 235.738C828.952 235.738 835.471 229.105 840.281 219.294V234.08H857.843V186.82V186.544C857.843 171.344 847.935 157.94 824.421 157.94ZM821.168 224.821C813.091 224.821 806.292 219.985 806.292 211.556C806.292 201.882 816.775 200.501 826.403 199.395L840.145 198.013V202.435C840.145 214.872 833.769 224.821 821.168 224.821Z" fill="white"/>
<path d="M903.278 223.578L880.051 159.598H862.21L886.714 226.065H902.431L891.244 261.164H909.51L942.228 159.598H923.675L903.278 223.578Z" fill="white"/>
<path d="M136.667 181.85C136.667 138.026 173.156 102.5 218.169 102.5C263.18 102.5 299.67 138.026 299.67 181.85V259.861C299.626 216.422 263.154 181.22 218.169 181.22C173.156 181.22 136.667 216.464 136.667 259.94V181.85Z" fill="white"/>
</svg>
