<svg width="40" height="41" viewBox="0 0 40 41" fill="none" xmlns="http://www.w3.org/2000/svg">
<g clip-path="url(#clip0_392_1166)">
<path d="M20 40.5C31.0457 40.5 40 31.5457 40 20.5C40 9.4543 31.0457 0.5 20 0.5C8.9543 0.5 0 9.4543 0 20.5C0 31.5457 8.9543 40.5 20 40.5Z" fill="#2E3148"/>
<path d="M19.9993 32.1041C26.4085 32.1041 31.6041 26.9085 31.6041 20.4993C31.6041 14.0902 26.4085 8.89453 19.9993 8.89453C13.5902 8.89453 8.39453 14.0902 8.39453 20.4993C8.39453 26.9085 13.5902 32.1041 19.9993 32.1041Z" fill="#1B1E36"/>
<path d="M20.0411 3.05176C17.8827 3.05176 16.1323 10.8822 16.1323 20.5414C16.1323 30.2006 17.8827 38.031 20.0411 38.031C22.1995 38.031 23.9499 30.2006 23.9499 20.5414C23.9499 10.8822 22.2011 3.05176 20.0411 3.05176ZM20.3115 37.0438C20.0651 37.3734 19.8171 37.1254 19.8171 37.1254C18.8235 35.9734 18.3259 33.8326 18.3259 33.8326C16.5867 28.2358 17.0011 16.2198 17.0011 16.2198C17.8187 6.68056 19.3051 4.42616 19.8107 3.92536C19.9179 3.81976 20.0843 3.80696 20.2059 3.89336C20.9403 4.41336 21.5563 6.58936 21.5563 6.58936C23.3739 13.3382 23.2091 19.6758 23.2091 19.6758C23.3739 25.191 22.2987 31.3638 22.2987 31.3638C21.4715 36.055 20.3115 37.0438 20.3115 37.0438Z" fill="#6F7390"/>
<path d="M35.2148 11.8345C34.1396 9.96085 26.4772 12.34 18.0948 17.1465C9.71243 21.9529 3.79883 27.3689 4.87243 29.2409C5.94603 31.1129 13.61 28.7353 21.9924 23.9289C30.3748 19.1225 36.2884 13.7065 35.2148 11.8345ZM5.86443 28.9849C5.45323 28.9337 5.54603 28.5945 5.54603 28.5945C6.05163 27.1593 7.65803 25.6633 7.65803 25.6633C11.6484 21.3689 22.2788 15.7481 22.2788 15.7481C30.9588 11.7097 33.6564 11.8793 34.3396 12.0681C34.4852 12.1081 34.5796 12.2473 34.5636 12.3977C34.482 13.2937 32.8964 14.9097 32.8964 14.9097C27.9508 19.8473 22.3716 22.8585 22.3716 22.8585C17.6708 25.7465 11.7812 27.8841 11.7812 27.8841C7.29803 29.4985 5.86443 28.9849 5.86443 28.9849Z" fill="#6F7390"/>
<path d="M35.1727 29.307C36.2559 27.4382 30.3583 21.9982 22.0047 17.155C13.6511 12.3118 5.99029 9.90544 4.90869 11.7758C3.82709 13.6462 9.72309 19.0846 18.0815 23.9278C26.4399 28.771 34.0911 31.179 35.1727 29.307ZM5.62549 12.499C5.46549 12.1198 5.80309 12.0286 5.80309 12.0286C7.29909 11.747 9.39829 12.3902 9.39829 12.3902C15.1135 13.691 25.3023 20.075 25.3023 20.075C33.1471 25.5646 34.3503 27.9822 34.5311 28.6686C34.5695 28.8142 34.4959 28.9662 34.3599 29.027C33.5423 29.4014 31.3503 28.843 31.3503 28.843C24.5967 27.0318 19.1967 23.715 19.1967 23.715C14.3439 21.0974 9.54549 17.0702 9.54549 17.0702C5.89909 13.9998 5.62549 12.5038 5.62549 12.5038V12.499Z" fill="#6F7390"/>
<path d="M19.9971 22.5547C21.1334 22.5547 22.0547 21.6334 22.0547 20.4971C22.0547 19.3607 21.1334 18.4395 19.9971 18.4395C18.8607 18.4395 17.9395 19.3607 17.9395 20.4971C17.9395 21.6334 18.8607 22.5547 19.9971 22.5547Z" fill="#B7B9C8"/>
<path d="M28.4358 13.8327C29.095 13.8327 29.6294 13.2797 29.6294 12.5975C29.6294 11.9153 29.095 11.3623 28.4358 11.3623C27.7766 11.3623 27.2422 11.9153 27.2422 12.5975C27.2422 13.2797 27.7766 13.8327 28.4358 13.8327Z" fill="#B7B9C8"/>
<path d="M8.8479 18.0358C9.5071 18.0358 10.0415 17.4828 10.0415 16.8006C10.0415 16.1184 9.5071 15.5654 8.8479 15.5654C8.18869 15.5654 7.6543 16.1184 7.6543 16.8006C7.6543 17.4828 8.18869 18.0358 8.8479 18.0358Z" fill="#B7B9C8"/>
</g>
<defs>
<clipPath id="clip0_392_1166">
<rect width="40" height="40" fill="white" transform="translate(0 0.5)"/>
</clipPath>
</defs>
</svg>
