<svg width="40" height="41" viewBox="0 0 40 41" fill="none" xmlns="http://www.w3.org/2000/svg">
<g clip-path="url(#clip0_392_1181)">
<rect y="0.5" width="40" height="40" rx="20" fill="#1A0B1C"/>
<g filter="url(#filter0_i_392_1181)">
<path d="M0 0.5H40.3267C40.3267 0.5 39.8202 10.9175 37.5 12.4444C34.3385 14.5251 30.0392 7.97389 26.2815 7.52259C22.1739 7.02926 18.3542 8.75731 14.5436 10.5627C9.8323 12.7949 9.44444 8.27778 5.55556 13.2778C1.66667 18.2778 0 33.5556 0 33.5556V0.5Z" fill="#1C0C1F"/>
</g>
<g filter="url(#filter1_d_392_1181)">
<path d="M-6.75321e-05 0.500027L33.0554 -0.611084C33.0554 -0.611084 36.1109 5.22225 36.1109 8.27781C36.1109 9.89751 26.1109 3.83336 22.9784 5.47476C18.9091 7.60706 15.7888 3.9693 11.3707 5.00097C8.58492 5.65151 3.8887 15.5 1.94425 15.7778C-0.646892 16.148 -0.555759 23.8334 -0.555759 23.8334L-6.75321e-05 0.500027Z" fill="url(#paint0_radial_392_1181)"/>
</g>
<g filter="url(#filter2_i_392_1181)">
<path d="M-5 21.8889C3.88889 25.7778 17.4937 40.1865 25.2778 34.1111C33.0619 28.0357 33.3591 14.875 38.0556 11.6111C41.5077 9.21203 40 12.4445 40 12.4445L45.6746 39.5222H-12.1312H-30C-30 39.5222 -10.3228 19.5602 -5 21.8889Z" fill="#1C0C1F"/>
</g>
<path d="M-9.99989 25.5C1.77779 24.0068 9.40659 38.7836 18.889 38C28.3714 37.2163 36.9446 23.2777 37.2223 19.1111C37.5001 14.9444 40.2779 15.5 40.2779 15.5L40.8354 40.5546H-24.4443C-24.4443 40.5546 -16.2976 26.2984 -9.99989 25.5Z" fill="url(#paint1_radial_392_1181)"/>
<path d="M17.4565 22.2421C17.6478 22.2421 17.8091 22.1136 17.8586 21.9378C18.0643 21.7951 18.9172 21.5625 20.3063 21.5625C21.6958 21.5625 22.5483 21.7951 22.7544 21.9378C22.8039 22.1136 22.9652 22.2421 23.1564 22.2421C23.3871 22.2421 23.5742 22.0553 23.5742 21.8247C23.5742 21.2134 22.7043 21.0058 22.4185 20.9378C21.8492 20.802 21.099 20.7273 20.3063 20.7273C19.5136 20.7273 18.7637 20.802 18.1944 20.9378C17.9087 21.0061 17.0391 21.2134 17.0391 21.8247C17.0391 22.0553 17.2259 22.2421 17.4565 22.2421Z" fill="#F7F7FF"/>
<path d="M14.6736 31.8335C15.0332 31.8335 15.3365 31.6998 15.4295 31.517C15.8164 31.3686 17.42 31.1268 20.0319 31.1268C22.6444 31.1268 24.2475 31.3686 24.6349 31.517C24.7279 31.6998 25.0312 31.8335 25.3908 31.8335C25.8245 31.8335 26.1763 31.6392 26.1763 31.3994C26.1763 30.7637 24.5407 30.5478 24.0034 30.477C22.9329 30.3358 21.5224 30.2582 20.0319 30.2582C18.5414 30.2582 17.1315 30.3358 16.061 30.477C15.5237 30.5481 13.8887 30.7637 13.8887 31.3994C13.8887 31.6392 14.24 31.8335 14.6736 31.8335Z" fill="#F7F7FF"/>
<path d="M14.6736 29.6281C15.0332 29.6281 15.3365 29.4944 15.4295 29.3116C15.8164 29.1631 17.42 28.9213 20.0319 28.9213C22.6444 28.9213 24.2475 29.1631 24.6349 29.3116C24.7279 29.4944 25.0312 29.6281 25.3908 29.6281C25.8245 29.6281 26.1763 29.4338 26.1763 29.1939C26.1763 28.5583 24.5407 28.3424 24.0034 28.2716C22.9329 28.1304 21.5224 28.0527 20.0319 28.0527C18.5414 28.0527 17.1315 28.1304 16.061 28.2716C15.5237 28.3427 13.8887 28.5583 13.8887 29.1939C13.8887 29.4338 14.24 29.6281 14.6736 29.6281Z" fill="#F7F7FF"/>
<path d="M14.676 27.2651C15.0356 27.2651 15.5282 26.9739 15.6212 26.7911C16.0081 26.6426 17.4197 26.4008 20.0316 26.4008C22.6441 26.4008 24.0557 26.6426 24.4432 26.7911C24.5362 26.9739 24.8712 27.2651 25.2308 27.2651C25.6645 27.2651 26.0185 27.0309 26.0185 26.7911C26.0185 26.1554 24.5404 25.8219 24.0031 25.7511C22.9326 25.6099 21.5221 25.5322 20.0316 25.5322C18.5411 25.5322 17.1312 25.6099 16.0607 25.7511C15.5234 25.8222 14.0459 25.9993 14.0459 26.635C14.0459 26.8748 14.2424 27.2651 14.676 27.2651Z" fill="#F7F7FF"/>
<path d="M14.6763 24.7444C15.0359 24.7444 15.5285 24.4531 15.6215 24.2703C16.0084 24.1219 17.42 23.8801 20.0319 23.8801C22.6444 23.8801 24.056 24.1219 24.4435 24.2703C24.5365 24.4531 25.0291 24.7444 25.3887 24.7444C25.8223 24.7444 26.0188 24.5101 26.0188 24.2703C26.0188 23.6347 24.5407 23.3011 24.0034 23.2303C22.9329 23.0891 21.5224 23.0115 20.0319 23.0115C18.5414 23.0115 17.1315 23.0891 16.061 23.2303C15.5237 23.3014 13.8887 23.6347 13.8887 24.2703C13.8887 24.5101 14.2427 24.7444 14.6763 24.7444Z" fill="#F7F7FF"/>
<path d="M17.4572 20.7268C17.672 20.7268 17.8488 20.5645 17.8721 20.3559C17.9257 20.2998 18.1235 20.1685 18.5892 20.0519C19.0668 19.9322 19.6765 19.8663 20.3066 19.8663C20.9371 19.8663 21.5474 19.9322 22.0244 20.0519C22.4904 20.1685 22.6879 20.2998 22.7415 20.3559C22.7648 20.5645 22.9419 20.7268 23.1564 20.7268C23.3871 20.7268 23.5742 20.5396 23.5742 20.309C23.5742 19.8669 23.1933 19.5276 22.4422 19.3011C21.8659 19.1268 21.1075 19.0314 20.3063 19.0314C19.5054 19.0314 18.747 19.1272 18.1708 19.3011C17.4197 19.5276 17.0391 19.8669 17.0391 20.309C17.0397 20.5399 17.2265 20.7268 17.4572 20.7268Z" fill="#F7F7FF"/>
<path d="M17.4565 19.032C17.6859 19.032 17.8715 18.8477 17.8743 18.619C17.9345 18.452 18.7357 18.0402 20.3063 18.0402C21.8769 18.0402 22.6782 18.452 22.739 18.619C22.7415 18.8477 22.9274 19.032 23.1564 19.032C23.3871 19.032 23.5742 18.8452 23.5742 18.6146C23.5742 17.641 21.933 17.205 20.3063 17.205C18.6803 17.205 17.0391 17.641 17.0391 18.6146C17.0391 18.8452 17.2259 19.032 17.4565 19.032Z" fill="#F7F7FF"/>
<path d="M18.7165 16.8911C18.9187 16.8911 19.0876 16.7471 19.1261 16.5562C19.2521 16.4582 19.7234 16.2978 20.4279 16.2978C21.1324 16.2978 21.6038 16.4585 21.7301 16.5562C21.7685 16.7471 21.9374 16.8911 22.1397 16.8911C22.3703 16.8911 22.5575 16.704 22.5575 16.4733C22.5575 16.0247 22.1318 15.783 21.7752 15.6592C21.4094 15.5322 20.9308 15.4623 20.4282 15.4623C19.9257 15.4623 19.4477 15.5322 19.0813 15.6592C18.7247 15.783 18.2993 16.0247 18.2993 16.4733C18.2987 16.704 18.4858 16.8911 18.7165 16.8911Z" fill="#F7F7FF"/>
<path d="M18.7168 15.4628C18.9443 15.4628 19.1292 15.2813 19.1342 15.0551C19.1821 14.9429 19.615 14.6628 20.3573 14.6628C21.1 14.6628 21.5325 14.9429 21.5808 15.0551C21.5861 15.2813 21.7711 15.4628 21.9982 15.4628C22.2285 15.4628 22.4157 15.2756 22.4157 15.0453C22.4157 14.3626 21.5118 13.8279 20.3573 13.8279C19.2036 13.8279 18.2993 14.3626 18.2993 15.0453C18.299 15.2759 18.4858 15.4628 18.7168 15.4628Z" fill="#F7F7FF"/>
<path d="M18.7168 13.8276C18.9474 13.8276 19.1346 13.6405 19.1346 13.4102C19.1346 13.2347 19.5741 12.913 20.2918 12.913C21.0099 12.913 21.4494 13.2347 21.4494 13.4102C21.4494 13.6405 21.6365 13.8276 21.8672 13.8276C22.0975 13.8276 22.2846 13.6405 22.2846 13.4102C22.2846 12.7592 21.6201 12.2309 20.7096 12.1058V9.3061C20.7096 9.07578 20.5224 8.8335 20.2918 8.8335C20.0615 8.8335 19.8743 9.07578 19.8743 9.3061V12.1061C18.9638 12.2309 18.2993 12.7592 18.2993 13.4105C18.299 13.6408 18.4862 13.8276 18.7168 13.8276Z" fill="#F7F7FF"/>
<path opacity="0.27" d="M16.7559 20.71C16.371 20.7932 14.9565 20.2831 14.8072 20.0285C14.7574 19.9437 15.0816 20.0386 15.5265 20.2338C16.2927 20.5541 16.7178 20.5043 17.3624 19.9836C18.5901 18.9783 17.8171 16.1818 15.8544 14.5963C14.0403 13.1231 10.8931 13.1447 8.34241 14.6409C6.60612 15.6594 5.82622 16.8296 3.96667 21.37C3.16638 23.3504 2.15389 25.4268 1.70687 26.0026C0.323371 27.869 -1.52857 28.5847 -4.29163 28.381C-5.74414 28.2637 -6.48909 27.8739 -6.60698 27.1448C-6.7505 26.2312 -6.39051 26.1056 -4.36723 26.3157C-2.64617 26.5035 -2.22104 26.4536 -1.21861 25.9797C0.331119 25.2416 1.01372 24.3281 2.68094 20.7273C5.19529 15.2611 6.57736 13.7092 9.573 13.0068C13.0611 12.1581 15.9984 13.2574 17.6034 15.9935C18.1106 16.8934 18.4496 18.6331 18.2528 19.3187C18.0619 19.9439 17.3317 20.6003 16.7559 20.71Z" fill="url(#paint2_linear_392_1181)"/>
<path opacity="0.27" d="M18.192 28.3478C18.4327 28.2577 19.4779 28.5015 19.6276 28.6686C19.6776 28.7243 19.4423 28.6839 19.1068 28.5828C18.532 28.4197 18.2578 28.4896 17.9295 28.9091C17.3068 29.7178 18.3726 31.6249 19.9953 32.5816C21.4966 33.4712 23.5948 33.1987 25.0048 31.936C25.9646 31.0765 26.2557 30.1883 26.606 26.8373C26.7516 25.3766 27.02 23.8309 27.2055 23.3887C27.7631 21.9606 28.8597 21.3049 30.7455 21.2226C31.7389 21.1865 32.3131 21.4003 32.5351 21.9043C32.8105 22.5363 32.5947 22.6542 31.2018 22.6716C30.0151 22.68 29.7409 22.7498 29.1644 23.1657C28.2741 23.8124 27.9975 24.5118 27.5912 27.1851C26.9853 31.2418 26.367 32.4482 24.5037 33.188C22.3403 34.0711 20.1621 33.5366 18.5523 31.7401C18.0367 31.1475 17.4685 29.9495 17.4652 29.4504C17.47 28.9943 17.8288 28.4721 18.192 28.3478Z" fill="url(#paint3_linear_392_1181)"/>
<path opacity="0.27" d="M26.9013 9.30959C27.2896 9.27339 28.4864 9.76481 28.556 9.97025C28.5792 10.0387 28.2987 9.94293 27.9321 9.76182C27.2963 9.46199 26.8793 9.46975 26.1211 9.82214C24.6734 10.5037 24.6162 12.6989 26.0288 14.0524C27.3324 15.3092 30.3218 15.5175 33.1623 14.5547C35.0958 13.8993 36.1657 13.0596 39.2109 9.71794C40.529 8.25962 42.0753 6.74303 42.6617 6.33432C44.5003 5.00491 46.458 4.58948 49.0196 4.94274C50.3634 5.13621 50.9594 5.48768 50.8652 6.05402C50.7432 6.7634 50.3665 6.83384 48.5079 6.52857C46.9295 6.26195 46.5124 6.26971 45.4283 6.56082C43.7508 7.01489 42.8457 7.66524 40.2482 10.3016C36.3207 14.3049 34.5722 15.3938 31.5341 15.7173C27.9879 16.1177 25.5141 15.0667 24.7656 12.8582C24.539 12.1334 24.7091 10.7779 25.0893 10.2673C25.4468 9.80258 26.3244 9.35243 26.9013 9.30959Z" fill="url(#paint4_linear_392_1181)"/>
</g>
<defs>
<filter id="filter0_i_392_1181" x="0" y="0.0391108" width="40.3267" height="33.5164" filterUnits="userSpaceOnUse" color-interpolation-filters="sRGB">
<feFlood flood-opacity="0" result="BackgroundImageFix"/>
<feBlend mode="normal" in="SourceGraphic" in2="BackgroundImageFix" result="shape"/>
<feColorMatrix in="SourceAlpha" type="matrix" values="0 0 0 0 0 0 0 0 0 0 0 0 0 0 0 0 0 0 127 0" result="hardAlpha"/>
<feOffset dy="-0.460889"/>
<feGaussianBlur stdDeviation="1.97158"/>
<feComposite in2="hardAlpha" operator="arithmetic" k2="-1" k3="1"/>
<feColorMatrix type="matrix" values="0 0 0 0 0.420833 0 0 0 0 0.415573 0 0 0 0 0.415573 0 0 0 0.25 0"/>
<feBlend mode="normal" in2="shape" result="effect1_innerShadow_392_1181"/>
</filter>
<filter id="filter1_d_392_1181" x="-3.06544" y="-2.55706" width="41.6856" height="29.463" filterUnits="userSpaceOnUse" color-interpolation-filters="sRGB">
<feFlood flood-opacity="0" result="BackgroundImageFix"/>
<feColorMatrix in="SourceAlpha" type="matrix" values="0 0 0 0 0 0 0 0 0 0 0 0 0 0 0 0 0 0 127 0" result="hardAlpha"/>
<feOffset dy="0.563309"/>
<feGaussianBlur stdDeviation="1.25464"/>
<feComposite in2="hardAlpha" operator="out"/>
<feColorMatrix type="matrix" values="0 0 0 0 0 0 0 0 0 0 0 0 0 0 0 0 0 0 1 0"/>
<feBlend mode="normal" in2="BackgroundImageFix" result="effect1_dropShadow_392_1181"/>
<feBlend mode="normal" in="SourceGraphic" in2="effect1_dropShadow_392_1181" result="shape"/>
</filter>
<filter id="filter2_i_392_1181" x="-30" y="10.725" width="75.6748" height="29.3562" filterUnits="userSpaceOnUse" color-interpolation-filters="sRGB">
<feFlood flood-opacity="0" result="BackgroundImageFix"/>
<feBlend mode="normal" in="SourceGraphic" in2="BackgroundImageFix" result="shape"/>
<feColorMatrix in="SourceAlpha" type="matrix" values="0 0 0 0 0 0 0 0 0 0 0 0 0 0 0 0 0 0 127 0" result="hardAlpha"/>
<feOffset dy="0.558974"/>
<feGaussianBlur stdDeviation="2.39117"/>
<feComposite in2="hardAlpha" operator="arithmetic" k2="-1" k3="1"/>
<feColorMatrix type="matrix" values="0 0 0 0 0.420833 0 0 0 0 0.415573 0 0 0 0 0.415573 0 0 0 0.25 0"/>
<feBlend mode="normal" in2="shape" result="effect1_innerShadow_392_1181"/>
</filter>
<radialGradient id="paint0_radial_392_1181" cx="0" cy="0" r="1" gradientUnits="userSpaceOnUse" gradientTransform="translate(23.4796 -2.64939) rotate(155.386) scale(22.1932 59.9002)">
<stop stop-color="#F8B810"/>
<stop offset="0.515625" stop-color="#E4462D"/>
<stop offset="1" stop-color="#56235C"/>
</radialGradient>
<radialGradient id="paint1_radial_392_1181" cx="0" cy="0" r="1" gradientUnits="userSpaceOnUse" gradientTransform="translate(4.75561 50.0999) rotate(-36.6656) scale(44.8803 199.038)">
<stop stop-color="#56235C"/>
<stop offset="0.368888" stop-color="#F8B810"/>
<stop offset="0.649805" stop-color="#E4462D"/>
<stop offset="1" stop-color="#29499C"/>
</radialGradient>
<linearGradient id="paint2_linear_392_1181" x1="1.44027" y1="25.0355" x2="19.5792" y2="19.3063" gradientUnits="userSpaceOnUse">
<stop stop-color="#2C3384"/>
<stop offset="0.432292" stop-color="#29499C"/>
<stop offset="0.959227" stop-color="#F8B810"/>
</linearGradient>
<linearGradient id="paint3_linear_392_1181" x1="27.5736" y1="24.0482" x2="17.0579" y2="30.3609" gradientUnits="userSpaceOnUse">
<stop stop-color="#2C3384"/>
<stop offset="0.432292" stop-color="#29499C"/>
<stop offset="0.959227" stop-color="#F8B810"/>
</linearGradient>
<linearGradient id="paint4_linear_392_1181" x1="42.6412" y1="7.0934" x2="23.7708" y2="7.49888" gradientUnits="userSpaceOnUse">
<stop stop-color="#2C3384"/>
<stop offset="0.432292" stop-color="#29499C"/>
<stop offset="0.959227" stop-color="#F8B810"/>
</linearGradient>
<clipPath id="clip0_392_1181">
<rect y="0.5" width="40" height="40" rx="20" fill="white"/>
</clipPath>
</defs>
</svg>
