<svg width="64" height="64" viewBox="0 0 64 64" fill="none" xmlns="http://www.w3.org/2000/svg">
<path d="M0 27.2C0 16.725 1.90735e-07 11.4876 2.35776 7.64002C3.67706 5.48714 5.48712 3.67706 7.64002 2.35774C11.4875 -3.8147e-07 16.725 0 27.2 0H36.8C47.2749 0 52.5125 -3.8147e-07 56.36 2.35774C58.5128 3.67706 60.3229 5.48714 61.6421 7.64002C64 11.4876 64 16.725 64 27.2V36.8C64 47.275 64 52.5125 61.6421 56.36C60.3229 58.513 58.5128 60.323 56.36 61.6422C52.5125 64 47.2749 64 36.8 64H27.2C16.725 64 11.4875 64 7.64002 61.6422C5.48712 60.323 3.67706 58.513 2.35776 56.36C1.90735e-07 52.5125 0 47.275 0 36.8V27.2Z" fill="url(#paint0_linear_704_1074)"/>
<path d="M0 27.2C0 16.725 1.90735e-07 11.4876 2.35776 7.64002C3.67706 5.48714 5.48712 3.67706 7.64002 2.35774C11.4875 -3.8147e-07 16.725 0 27.2 0H36.8C47.2749 0 52.5125 -3.8147e-07 56.36 2.35774C58.5128 3.67706 60.3229 5.48714 61.6421 7.64002C64 11.4876 64 16.725 64 27.2V36.8C64 47.275 64 52.5125 61.6421 56.36C60.3229 58.513 58.5128 60.323 56.36 61.6422C52.5125 64 47.2749 64 36.8 64H27.2C16.725 64 11.4875 64 7.64002 61.6422C5.48712 60.323 3.67706 58.513 2.35776 56.36C1.90735e-07 52.5125 0 47.275 0 36.8V27.2Z" fill="url(#paint1_radial_704_1074)"/>
<path d="M0 27.2C0 16.725 1.90735e-07 11.4876 2.35776 7.64002C3.67706 5.48714 5.48712 3.67706 7.64002 2.35774C11.4875 -3.8147e-07 16.725 0 27.2 0H36.8C47.2749 0 52.5125 -3.8147e-07 56.36 2.35774C58.5128 3.67706 60.3229 5.48714 61.6421 7.64002C64 11.4876 64 16.725 64 27.2V36.8C64 47.275 64 52.5125 61.6421 56.36C60.3229 58.513 58.5128 60.323 56.36 61.6422C52.5125 64 47.2749 64 36.8 64H27.2C16.725 64 11.4875 64 7.64002 61.6422C5.48712 60.323 3.67706 58.513 2.35776 56.36C1.90735e-07 52.5125 0 47.275 0 36.8V27.2Z" fill="url(#paint2_radial_704_1074)"/>
<path d="M0 27.2C0 16.725 2.33177e-07 11.4876 2.35776 7.64002C3.67706 5.48714 5.48712 3.67706 7.64002 2.35774C11.4875 -4.66354e-07 16.725 0 27.2 0H36.8C47.2749 0 52.5125 -4.66354e-07 56.36 2.35774C58.5128 3.67706 60.3229 5.48714 61.6421 7.64002C64 11.4876 64 16.725 64 27.2V36.8C64 47.275 64 52.5125 61.6421 56.36C60.3229 58.513 58.5128 60.323 56.36 61.6422C52.5125 64 47.2749 64 36.8 64H27.2C16.725 64 11.4875 64 7.64002 61.6422C5.48712 60.323 3.67706 58.513 2.35776 56.36C2.33177e-07 52.5125 0 47.275 0 36.8V27.2Z" fill="url(#paint3_radial_704_1074)"/>
<path d="M24.4477 49.5751V33.9848L39.5966 49.5751H48.023V49.1704L30.6003 31.4211L46.679 14.5773V14.375H38.1984L24.4477 29.2589V14.375H17.623V49.5751H24.4477Z" fill="white"/>
<defs>
<linearGradient id="paint0_linear_704_1074" x1="32" y1="0" x2="32" y2="64" gradientUnits="userSpaceOnUse">
<stop stop-color="#1FD1FF"/>
<stop offset="1" stop-color="#1BB8FF"/>
</linearGradient>
<radialGradient id="paint1_radial_704_1074" cx="0" cy="0" r="1" gradientUnits="userSpaceOnUse" gradientTransform="translate(3.05711 61.575) rotate(-45.1556) scale(102.636 104.171)">
<stop stop-color="#232DE3"/>
<stop offset="1" stop-color="#232DE3" stop-opacity="0"/>
</radialGradient>
<radialGradient id="paint2_radial_704_1074" cx="0" cy="0" r="1" gradientUnits="userSpaceOnUse" gradientTransform="translate(60.553 63.6346) rotate(-138.45) scale(64.1733 97.8462)">
<stop stop-color="#8B4DFF"/>
<stop offset="1" stop-color="#8B4DFF" stop-opacity="0"/>
</radialGradient>
<radialGradient id="paint3_radial_704_1074" cx="0" cy="0" r="1" gradientUnits="userSpaceOnUse" gradientTransform="translate(31.4669 0.474663) rotate(90) scale(50.4586 122.426)">
<stop stop-color="#24D5FF"/>
<stop offset="1" stop-color="#1BB8FF" stop-opacity="0"/>
</radialGradient>
</defs>
</svg>
