<svg width="99" height="34" viewBox="0 0 99 34" fill="none" xmlns="http://www.w3.org/2000/svg">
<g clip-path="url(#clip0_4692_4217)">
<path d="M43.9209 24.6213V17.2286L51.2027 24.6213H55.2595V24.4294L46.8832 16.0112L54.607 8.02227V7.92627H50.5289L43.9177 14.9856V7.92627H40.6406V24.6213H43.9209ZM60.8855 24.9784C62.7744 24.9784 64.8363 24.3351 66.1543 23.0705L64.2148 21.2348C63.4954 21.9254 62.0535 22.3359 60.9345 22.3359C58.7731 22.3359 57.4795 21.2868 57.2822 19.8318H66.841C66.8671 19.4511 66.8916 19.0925 66.8916 18.7307C66.8916 14.6285 64.4057 12.5539 60.6539 12.5539C56.677 12.5539 54.1421 15.1287 54.1421 18.7072C54.147 22.4507 56.6574 24.9784 60.8823 24.9784H60.8855ZM63.9424 17.4189H57.3278C57.7993 15.8916 59.0928 15.1287 60.7534 15.1287C62.5216 15.1287 63.7418 15.8916 63.9392 17.4189H63.9424ZM71.2356 30.0102V23.2372C72.1293 24.549 73.9938 24.9548 75.3135 24.9548C79.2418 24.9548 81.5023 22.188 81.5023 18.7544C81.5023 15.2939 78.9919 12.601 75.2138 12.601C73.8224 12.601 72.2077 13.15 71.2389 14.4885L71.0396 12.8668H68.1997V30.0118L71.2356 30.0102ZM74.9872 22.1173C72.8994 22.1173 71.508 20.5899 71.508 18.7544C71.508 16.9187 72.8018 15.415 74.9872 15.415C77.1733 15.415 78.4664 16.9172 78.4664 18.7544C78.4664 20.5915 77.0723 22.1173 74.9839 22.1173H74.9872ZM86.0096 24.6213V7.94831H82.9978V24.6213H86.0096ZM91.288 24.6213V18.4209C91.288 16.2188 92.7555 15.4323 94.3448 15.4323C95.3395 15.4323 95.9104 15.7469 96.5329 16.1967L97.8998 13.6675C97.229 13.0713 96.0102 12.5665 94.7432 12.5665C93.526 12.5665 92.1837 12.7804 91.288 14.2117L91.0647 12.8527H88.2517V24.6103L91.288 24.6213Z" fill="white"/>
<path d="M0.832031 14.7553C0.832031 9.40007 0.832031 6.72251 2.03741 4.75549C2.71189 3.65485 3.63726 2.72947 4.73791 2.05498C6.70491 0.849609 9.38249 0.849609 14.7377 0.849609H19.6456C25.0008 0.849609 27.6785 0.849609 29.6455 2.05498C30.7461 2.72947 31.6715 3.65485 32.3459 4.75549C33.5514 6.72251 33.5514 9.40007 33.5514 14.7553V19.6632C33.5514 25.0185 33.5514 27.6961 32.3459 29.6631C31.6715 30.7637 30.7461 31.6891 29.6455 32.3636C27.6785 33.5689 25.0008 33.5689 19.6456 33.5689H14.7377C9.38249 33.5689 6.70491 33.5689 4.73791 32.3636C3.63726 31.6891 2.71189 30.7637 2.03741 29.6631C0.832031 27.6961 0.832031 25.0185 0.832031 19.6632V14.7553Z" fill="url(#paint0_linear_4692_4217)"/>
<path d="M0.832031 14.7553C0.832031 9.40007 0.832031 6.72251 2.03741 4.75549C2.71189 3.65485 3.63726 2.72947 4.73791 2.05498C6.70491 0.849609 9.38249 0.849609 14.7377 0.849609H19.6456C25.0008 0.849609 27.6785 0.849609 29.6455 2.05498C30.7461 2.72947 31.6715 3.65485 32.3459 4.75549C33.5514 6.72251 33.5514 9.40007 33.5514 14.7553V19.6632C33.5514 25.0185 33.5514 27.6961 32.3459 29.6631C31.6715 30.7637 30.7461 31.6891 29.6455 32.3636C27.6785 33.5689 25.0008 33.5689 19.6456 33.5689H14.7377C9.38249 33.5689 6.70491 33.5689 4.73791 32.3636C3.63726 31.6891 2.71189 30.7637 2.03741 29.6631C0.832031 27.6961 0.832031 25.0185 0.832031 19.6632V14.7553Z" fill="url(#paint1_radial_4692_4217)"/>
<path d="M0.832031 14.7553C0.832031 9.40007 0.832031 6.72251 2.03741 4.75549C2.71189 3.65485 3.63726 2.72947 4.73791 2.05498C6.70491 0.849609 9.38249 0.849609 14.7377 0.849609H19.6456C25.0008 0.849609 27.6785 0.849609 29.6455 2.05498C30.7461 2.72947 31.6715 3.65485 32.3459 4.75549C33.5514 6.72251 33.5514 9.40007 33.5514 14.7553V19.6632C33.5514 25.0185 33.5514 27.6961 32.3459 29.6631C31.6715 30.7637 30.7461 31.6891 29.6455 32.3636C27.6785 33.5689 25.0008 33.5689 19.6456 33.5689H14.7377C9.38249 33.5689 6.70491 33.5689 4.73791 32.3636C3.63726 31.6891 2.71189 30.7637 2.03741 29.6631C0.832031 27.6961 0.832031 25.0185 0.832031 19.6632V14.7553Z" fill="url(#paint2_radial_4692_4217)"/>
<path d="M0.832031 14.7553C0.832031 9.40007 0.832031 6.72251 2.03741 4.75549C2.71189 3.65485 3.63726 2.72947 4.73791 2.05498C6.70491 0.849609 9.38249 0.849609 14.7377 0.849609H19.6456C25.0008 0.849609 27.6785 0.849609 29.6455 2.05498C30.7461 2.72947 31.6715 3.65485 32.3459 4.75549C33.5514 6.72251 33.5514 9.40007 33.5514 14.7553V19.6632C33.5514 25.0185 33.5514 27.6961 32.3459 29.6631C31.6715 30.7637 30.7461 31.6891 29.6455 32.3636C27.6785 33.5689 25.0008 33.5689 19.6456 33.5689H14.7377C9.38249 33.5689 6.70491 33.5689 4.73791 32.3636C3.63726 31.6891 2.71189 30.7637 2.03741 29.6631C0.832031 27.6961 0.832031 25.0185 0.832031 19.6632V14.7553Z" fill="url(#paint3_radial_4692_4217)"/>
<path d="M13.3172 26.2046V18.2343L21.0619 26.2046H25.3698V25.9978L16.4626 16.9236L24.6827 8.31241V8.20898H20.3471L13.3172 15.8182V8.20898H9.82812V26.2046H13.3172Z" fill="white"/>
</g>
<defs>
<linearGradient id="paint0_linear_4692_4217" x1="17.1917" y1="0.849609" x2="17.1917" y2="33.5689" gradientUnits="userSpaceOnUse">
<stop stop-color="#1FD1FF"/>
<stop offset="1" stop-color="#1BB8FF"/>
</linearGradient>
<radialGradient id="paint1_radial_4692_4217" cx="0" cy="0" r="1" gradientUnits="userSpaceOnUse" gradientTransform="translate(2.39495 32.3292) rotate(-45.1556) scale(52.4715 53.2564)">
<stop stop-color="#232DE3"/>
<stop offset="1" stop-color="#232DE3" stop-opacity="0"/>
</radialGradient>
<radialGradient id="paint2_radial_4692_4217" cx="0" cy="0" r="1" gradientUnits="userSpaceOnUse" gradientTransform="translate(31.7891 33.3821) rotate(-138.45) scale(32.8079 50.0229)">
<stop stop-color="#8B4DFF"/>
<stop offset="1" stop-color="#8B4DFF" stop-opacity="0"/>
</radialGradient>
<radialGradient id="paint3_radial_4692_4217" cx="0" cy="0" r="1" gradientUnits="userSpaceOnUse" gradientTransform="translate(16.9191 1.09228) rotate(90) scale(25.7964 62.5891)">
<stop stop-color="#24D5FF"/>
<stop offset="1" stop-color="#1BB8FF" stop-opacity="0"/>
</radialGradient>
<clipPath id="clip0_4692_4217">
<rect width="97.34" height="32.7193" fill="white" transform="translate(0.832031 0.850586)"/>
</clipPath>
</defs>
</svg>
